0
SECTION
2
HEADER
9
$INSUNITS
70
4
9
$ACADVER
1
AC1014
9
$HANDSEED
5
FFFF
0
ENDSEC
0
SECTION
2
TABLES
0
TABLE
2
VPORT
5
8
100
AcDbSymbolTable
0
ENDTAB
0
TABLE
2
LTYPE
5
5
100
AcDbSymbolTable
70
2
0
LTYPE
5
14
100
AcDbSymbolTableRecord
100
AcDbLinetypeTableRecord
2
BYBLOCK
70
0
0
LTYPE
5
15
100
AcDbSymbolTableRecord
100
AcDbLinetypeTableRecord
2
BYLAYER
70
0
0
ENDTAB
0
TABLE
2
LAYER
5
2
100
AcDbSymbolTable
70
11
0
LAYER
5
50
100
AcDbSymbolTableRecord
100
AcDbLayerTableRecord
2
0
70
0
6
CONTINUOUS
0
LAYER
5
51
100
AcDbSymbolTableRecord
100
AcDbLayerTableRecord
2
BOARDS
70
0
62
0
6
CONTINUOUS
0
LAYER
5
52
100
AcDbSymbolTableRecord
100
AcDbLayerTableRecord
2
PERIMETER D 5.0
70
0
62
5
6
CONTINUOUS
0
LAYER
5
53
100
AcDbSymbolTableRecord
100
AcDbLayerTableRecord
2
INSETS D 0.1
70
0
62
3
6
CONTINUOUS
0
LAYER
5
54
100
AcDbSymbolTableRecord
100
AcDbLayerTableRecord
2
INSETS D 1.0
70
0
62
3
6
CONTINUOUS
0
LAYER
5
55
100
AcDbSymbolTableRecord
100
AcDbLayerTableRecord
2
HOLES DIAM 38.0 D 5.0
70
0
62
5
6
CONTINUOUS
0
LAYER
5
56
100
AcDbSymbolTableRecord
100
AcDbLayerTableRecord
2
HOLES DIAM 5.0 D 5.0
70
0
62
5
6
CONTINUOUS
0
LAYER
5
57
100
AcDbSymbolTableRecord
100
AcDbLayerTableRecord
2
CUTOUTS D 5.0
70
0
62
5
6
CONTINUOUS
0
LAYER
5
58
100
AcDbSymbolTableRecord
100
AcDbLayerTableRecord
2
HOLES DIAM 6.0 D 5.0
70
0
62
5
6
CONTINUOUS
0
LAYER
5
59
100
AcDbSymbolTableRecord
100
AcDbLayerTableRecord
2
HOLES DIAM 2.3 D 5.0
70
0
62
5
6
CONTINUOUS
0
LAYER
5
5A
100
AcDbSymbolTableRecord
100
AcDbLayerTableRecord
2
HOLES DIAM 2.5 D 5.0
70
0
62
5
6
CONTINUOUS
0
ENDTAB
0
TABLE
2
STYLE
5
3
100
AcDbSymbolTable
70
1
0
STYLE
5
11
100
AcDbSymbolTableRecord
100
AcDbTextStyleTableRecord
2
STANDARD
70
0
0
ENDTAB
0
TABLE
2
VIEW
5
6
100
AcDbSymbolTable
0
ENDTAB
0
TABLE
2
UCS
5
7
100
AcDbSymbolTable
0
ENDTAB
0
TABLE
2
APPID
5
9
100
AcDbSymbolTable
70
1
0
APPID
5
12
100
AcDbSymbolTableRecord
100
AcDbRegAppTableRecord
2
ACAD
70
0
0
ENDTAB
0
TABLE
2
DIMSTYLE
5
A
100
AcDbSymbolTable
0
ENDTAB
0
TABLE
2
BLOCK_RECORD
5
1
100
AcDbSymbolTable
70
2
0
BLOCK_RECORD
5
1F
100
AcDbSymbolTableRecord
100
AcDbBlockTableRecord
2
*MODEL_SPACE
0
BLOCK_RECORD
5
1B
100
AcDbSymbolTableRecord
100
AcDbBlockTableRecord
2
*PAPER_SPACE
0
ENDTAB
0
ENDSEC
0
SECTION
2
BLOCKS
0
BLOCK
5
20
100
AcDbEntity
100
AcDbBlockBegin
2
*MODEL_SPACE
0
ENDBLK
5
21
100
AcDbEntity
100
AcDbBlockEnd
0
BLOCK
5
1C
100
AcDbEntity
100
AcDbBlockBegin
2
*PAPER_SPACE
0
ENDBLK
5
1D
100
AcDbEntity
100
AcDbBlockEnd
0
ENDSEC
0
SECTION
2
ENTITIES
0
LWPOLYLINE
5
100
100
AcDbEntity
8
BOARDS
100
AcDbPolyline
90
4
70
1
43
0.0
10
0
20
0
10
600
20
0
10
600
20
-305
10
0
20
-305
0
LWPOLYLINE
5
101
100
AcDbEntity
8
BOARDS
100
AcDbPolyline
90
4
70
1
43
0.0
10
0
20
-345.63999999999999
10
600
20
-345.63999999999999
10
600
20
-650.63999999999987
10
0
20
-650.63999999999987
0
LWPOLYLINE
5
102
100
AcDbEntity
8
PERIMETER D 5.0
100
AcDbPolyline
90
12
70
1
43
0.0
10
477.94370457415198
20
-24.585328377233072
10
473.024704574152
20
-24.585328377233072
10
473.024704574152
20
-5.1464185181816013
42
0.54470056284375901
10
431.40402867195121
20
-77.235543826151016
10
448.23861843176559
20
-67.516088896625277
10
450.69811843176552
20
-71.776067857840886
10
433.86352867195114
20
-81.49552278736661
42
0.54470056284375956
10
517.10488047635283
20
-81.495522787366625
10
500.2702907165384
20
-71.776067857840914
10
502.72979071653828
20
-67.516088896625305
10
519.56438047635277
20
-77.235543826151044
42
0.54470056284375912
10
477.94370457415198
20
-5.1464185181815925
0
CIRCLE
5
103
100
AcDbEntity
8
PERIMETER D 5.0
100
AcDbCircle
10
263
20
-73.5
30
0
40
49.54049999999998
210
0
220
0
230
1
0
CIRCLE
5
104
100
AcDbEntity
8
PERIMETER D 5.0
100
AcDbCircle
10
363
20
-73.5
30
0
40
49.540500000000037
210
0
220
0
230
1
0
LWPOLYLINE
5
105
100
AcDbEntity
8
PERIMETER D 5.0
100
AcDbPolyline
90
12
70
1
43
0.0
10
206.04050000000001
20
-99.04050059595356
10
206.04050000000001
20
-123.04050059595356
10
5.9595000000000153
20
-123.04050059595357
10
5.9595000000000145
20
-99.040500595953574
10
0.95950000000001401
20
-99.040500595953574
10
0.95950000000001401
20
-58.959499999953586
10
5.9595000000000145
20
-58.959499999953586
10
5.95950000000001
20
-34.95950000000002
10
206.04050000000001
20
-34.959499999999998
10
206.04050000000001
20
-58.959499999953564
10
211.04050000000001
20
-58.959499999953564
10
211.04050000000001
20
-99.04050059595356
0
LWPOLYLINE
5
106
100
AcDbEntity
8
PERIMETER D 5.0
100
AcDbPolyline
90
16
70
1
43
0.0
10
11.959500000000711
20
-219.04050116190268
10
0.959500000000022
20
-219.04050116190268
10
0.95949999999999536
20
-148.95950116190272
10
11.959499999999995
20
-148.95950116190272
10
11.959499999999995
20
-143.95950116190269
10
32.459499999999267
20
-143.95950116190272
10
32.459500000000148
20
-123.94671653119239
10
212.54049999999876
20
-173.96921653119239
10
212.54049999999887
20
-214.02503037654435
10
32.459500000000006
20
-304.0655303765443
10
32.459499999999977
20
-299.04050116190268
10
11.959500000000709
20
-299.04050116190268
10
11.959500000000716
20
-294.04050116190268
10
0.95950000000002644
20
-294.04050116190268
10
0.95950000000001978
20
-223.95950116190272
10
11.959500000000709
20
-223.95950116190272
0
LWPOLYLINE
5
107
100
AcDbEntity
8
PERIMETER D 5.0
100
AcDbPolyline
90
16
70
1
43
0.0
10
224.4595000000007
20
-219.04050116190277
10
213.45950000000002
20
-219.04050116190277
10
213.45949999999999
20
-148.95950116190272
10
224.45949999999999
20
-148.95950116190272
10
224.45950000000005
20
-143.95950116190272
10
244.95949999999925
20
-143.95950116190272
10
244.95950000000008
20
-123.94671653119239
10
425.0404999999987
20
-173.96921653119244
10
425.04049999999887
20
-214.02503037654444
10
244.95949999999999
20
-304.06553037654442
10
244.95949999999996
20
-299.04050116190274
10
224.4595000000007
20
-299.04050116190274
10
224.4595000000007
20
-294.04050116190274
10
213.45950000000002
20
-294.04050116190274
10
213.45950000000002
20
-223.95950116190278
10
224.4595000000007
20
-223.95950116190278
0
LWPOLYLINE
5
108
100
AcDbEntity
8
PERIMETER D 5.0
100
AcDbPolyline
90
12
70
1
43
0.0
10
450.69811843176552
20
-137.4757605193922
10
433.86352867195114
20
-127.75630558986643
42
-0.54470056284375901
10
517.10488047635283
20
-127.75630558986641
10
500.27029071653851
20
-137.47576051939217
10
502.72979071653833
20
-141.73573948060775
10
519.56438047635277
20
-132.01628455108201
42
-0.54470056284375923
10
477.94370457415198
20
-204.10540985905152
10
477.94370457415198
20
-184.66650000000004
10
473.024704574152
20
-184.66650000000004
10
473.02470457415205
20
-204.10540985905152
42
-0.54470056284375967
10
431.40402867195121
20
-132.01628455108204
10
448.23861843176559
20
-141.7357394806078
0
LWPOLYLINE
5
109
100
AcDbEntity
8
PERIMETER D 5.0
100
AcDbPolyline
90
12
70
1
43
0.0
10
431.40402867195121
20
-231.95328455108205
42
0.54470056284375867
10
473.02470457415188
20
-304.04240985905147
10
473.024704574152
20
-284.6035
10
477.94370457415198
20
-284.6035
10
477.94370457415198
20
-304.04240985905147
42
0.54470056284375934
10
519.56438047635277
20
-231.95328455108199
10
502.72979071653828
20
-241.67273948060782
10
500.2702907165384
20
-237.41276051939218
10
517.10488047635283
20
-227.69330558986641
42
0.54470056284375901
10
433.86352867195114
20
-227.69330558986641
10
450.69811843176552
20
-237.41276051939221
10
448.23861843176559
20
-241.67273948060782
0
LWPOLYLINE
5
10A
100
AcDbEntity
8
PERIMETER D 5.0
100
AcDbPolyline
90
10
70
1
43
0.0
10
574.17501457143442
20
-284.16928527221773
10
557.16033110546482
20
-301.6033343471874
42
-0.26418770547405118
10
549.52938124282809
20
-303.80589484859661
10
525.84148122219676
20
-298.12004282729282
10
530.75375297163055
20
-296.70218844189486
10
529.37712974620638
20
-291.93276539711098
10
526.46100522746349
20
-237.81255652935843
42
-0.79521152165922537
10
541.51434887429582
20
-233.46763214543688
10
567.88611959662137
20
-280.81771661281897
10
569.26274282204542
20
-285.58713965760273
0
CIRCLE
5
10B
100
AcDbEntity
8
PERIMETER D 5.0
100
AcDbCircle
10
48
20
-421.63999999999999
30
0
40
47.040500000000016
210
0
220
-0
230
1
0
CIRCLE
5
10C
100
AcDbEntity
8
PERIMETER D 5.0
100
AcDbCircle
10
143
20
-421.63999999999999
30
0
40
47.04049999999998
210
0
220
-0
230
1
0
LWPOLYLINE
5
10D
100
AcDbEntity
8
PERIMETER D 5.0
100
AcDbPolyline
90
16
70
1
43
0.0
10
201.54049999999816
20
-554.59949883809725
10
212.54049999999887
20
-554.59949883809725
10
212.5404999999989
20
-624.68049883809726
10
201.54049999999887
20
-624.68049883809726
10
201.54049999999887
20
-629.68049883809726
10
181.04049999999961
20
-629.68049883809726
10
181.04049999999873
20
-649.69328346880752
10
0.95950000000005531
20
-599.67078346880749
10
0.95949999999995661
20
-559.61496962345564
10
181.04049999999887
20
-469.57446962345563
10
181.0404999999989
20
-474.59949883809725
10
201.54049999999816
20
-474.59949883809725
10
201.54049999999816
20
-479.59949883809725
10
212.54049999999887
20
-479.59949883809725
10
212.54049999999887
20
-549.68049883809726
10
201.54049999999816
20
-549.68049883809726
0
SPLINE
5
10E
100
AcDbEntity
8
INSETS D 0.1
100
AcDbSpline
70
0
71
3
72
17
73
13
74
0
42
0.000000001
43
0.0000000001
44
0.0000000001
40
-0.00029050533053492195
40
-0.00029050533053492195
40
-0.00029050533053492195
40
-0.00029050533053492195
40
0
40
0
40
0
40
0.062993605756647836
40
0.062993605756647836
40
0.062993605756647836
40
0.12664607634899006
40
0.12664607634899006
40
0.12664607634899006
40
0.12691896727856328
40
0.12691896727856328
40
0.12691896727856328
40
0.12691896727856328
10
264.23948841066982
20
-39.292753190521964
30
0
10
264.2386834575442
20
-39.292192148608557
30
0
10
264.23787850441869
20
-39.291631106695235
30
0
10
264.23707355129318
20
-39.29107006478192
30
0
10
264.06252632440226
20
-39.169412906080289
30
0
10
263.88539896195601
20
-39.04636417421014
30
0
10
263.7405963945817
20
-38.889228775442682
30
0
10
263.59427930333453
20
-38.730449860838227
30
0
10
263.48536839522768
20
-38.541644176277543
30
0
10
263.37763796803347
20
-38.355557330315605
30
0
10
263.37717610604847
20
-38.354759538621046
30
0
10
263.37671424406335
20
-38.353961746926487
30
0
10
263.37625238207852
20
-38.353163955232226
30
0
0
SPLINE
5
10F
100
AcDbEntity
8
INSETS D 0.1
100
AcDbSpline
70
0
71
3
72
17
73
13
74
0
42
0.000000001
43
0.0000000001
44
0.0000000001
40
-0.00027436958596143161
40
-0.00027436958596143161
40
-0.00027436958596143161
40
-0.00027436958596143161
40
0
40
0
40
0
40
0.066820095546765448
40
0.066820095546765448
40
0.066820095546765448
40
0.13826230191203454
40
0.13826230191203454
40
0.13826230191203454
40
0.13844123513780798
40
0.13844123513780798
40
0.13844123513780798
40
0.13844123513780798
10
263.37625238207602
20
-38.35316395523251
30
0
10
263.37590325500241
20
-38.352310785619828
30
0
10
263.37555412792869
20
-38.351457616006599
30
0
10
263.37520500085492
20
-38.350604446393369
30
0
10
263.29017843223784
20
-38.142823125173479
30
0
10
263.20412606035393
20
-37.933044364392011
30
0
10
263.15447215248145
20
-37.712777208829714
30
0
10
263.10138356133172
20
-37.477273630835583
30
0
10
263.0910579476419
20
-37.234904171151122
30
0
10
263.08061658506881
20
-36.99493881688521
30
0
10
263.08059043376716
20
-36.994337802763482
30
0
10
263.08056428246556
20
-36.993736788641755
30
0
10
263.08053813116396
20
-36.993135774520255
30
0
0
SPLINE
5
110
100
AcDbEntity
8
INSETS D 0.1
100
AcDbSpline
70
0
71
3
72
17
73
13
74
0
42
0.000000001
43
0.0000000001
44
0.0000000001
40
-0.00017883338041797283
40
-0.00017883338041797283
40
-0.00017883338041797283
40
-0.00017883338041797283
40
0
40
0
40
0
40
0.072457277163881173
40
0.072457277163881173
40
0.072457277163881173
40
0.1405047486256531
40
0.1405047486256531
40
0.1405047486256531
40
0.14077811204124854
40
0.14077811204124854
40
0.14077811204124854
40
0.14077811204124854
10
263.08053813116379
20
-36.993135774520226
30
0
10
263.08056554177023
20
-36.992534816514066
30
0
10
263.08059295237666
20
-36.991933858508077
30
0
10
263.0806203629831
20
-36.991332900502066
30
0
10
263.09172621974221
20
-36.747844907955766
30
0
10
263.10271034416337
20
-36.501877875592776
30
0
10
263.15837776620367
20
-36.263471616450303
30
0
10
263.21065722605795
20
-36.039574945883828
30
0
10
263.30125892933387
20
-35.827005615812944
30
0
10
263.3907638481823
20
-35.616486353412505
30
0
10
263.39112341143726
20
-35.615640645800106
30
0
10
263.39148297469217
20
-35.614794938187707
30
0
10
263.39184253794701
20
-35.613949230575585
30
0
0
SPLINE
5
111
100
AcDbEntity
8
INSETS D 0.1
100
AcDbSpline
70
0
71
3
72
17
73
13
74
0
42
0.000000001
43
0.0000000001
44
0.0000000001
40
-0.0002717426479165139
40
-0.0002717426479165139
40
-0.0002717426479165139
40
-0.0002717426479165139
40
0
40
0
40
0
40
0.064474087134889183
40
0.064474087134889183
40
0.064474087134889183
40
0.12727545880032748
40
0.12727545880032748
40
0.12727545880032748
40
0.12755721110511553
40
0.12755721110511553
40
0.12755721110511553
40
0.12755721110511553
10
263.39184253794775
20
-35.613949230575962
30
0
10
263.39231339108142
20
-35.613160050989983
30
0
10
263.39278424421485
20
-35.612370871404202
30
0
10
263.39325509734834
20
-35.611581691818422
30
0
10
263.50497045079123
20
-35.424339704697957
30
0
10
263.61794086934765
20
-35.234267785673509
30
0
10
263.7697927387415
20
-35.076845267056591
30
0
10
263.91770496381798
20
-34.923506917659154
30
0
10
264.09797808941312
20
-34.805841526852376
30
0
10
264.27555691917337
20
-34.68951844581121
30
0
10
264.2763536094883
20
-34.688996573512654
30
0
10
264.27715029980317
20
-34.688474701214098
30
0
10
264.27794699011798
20
-34.68795282891557
30
0
0
SPLINE
5
112
100
AcDbEntity
8
INSETS D 0.1
100
AcDbSpline
70
0
71
3
72
17
73
13
74
0
42
0.000000001
43
0.0000000001
44
0.0000000001
40
-0.00028289239070136327
40
-0.00028289239070136327
40
-0.00028289239070136327
40
-0.00028289239070136327
40
0
40
0
40
0
40
0.062906884723392162
40
0.062906884723392162
40
0.062906884723392162
40
0.12630466241600138
40
0.12630466241600138
40
0.12630466241600138
40
0.12653839020493915
40
0.12653839020493915
40
0.12653839020493915
40
0.12653839020493915
10
264.27794699011872
20
-34.687952828917041
30
0
10
264.27880905897428
20
-34.687547979034967
30
0
10
264.27967112783017
20
-34.687143129152751
30
0
10
264.28053319668606
20
-34.686738279270529
30
0
10
264.47223176450444
20
-34.596711662405284
30
0
10
264.66612101557268
20
-34.505380565893631
30
0
10
264.87265594836686
20
-34.452657541974261
30
0
10
265.08080257353549
20
-34.399523094696839
30
0
10
265.29645326940653
20
-34.386964690710279
30
0
10
265.5095354779944
20
-34.374305056926914
30
0
10
265.5103210454904
20
-34.374258384814411
30
0
10
265.5111066129864
20
-34.374211712701907
30
0
10
265.5118921804825
20
-34.374165040589389
30
0
0
SPLINE
5
113
100
AcDbEntity
8
INSETS D 0.1
100
AcDbSpline
70
0
71
3
72
17
73
13
74
0
42
0.000000001
43
0.0000000001
44
0.0000000001
40
-0.00023319197243643519
40
-0.00023319197243643519
40
-0.00023319197243643519
40
-0.00023319197243643519
40
0
40
0
40
0
40
0.067390232196088418
40
0.067390232196088418
40
0.067390232196088418
40
0.13201342103695382
40
0.13201342103695382
40
0.13201342103695382
40
0.13230541041111213
40
0.13230541041111213
40
0.13230541041111213
40
0.13230541041111213
10
265.51189218048262
20
-34.374165040588935
30
0
10
265.51267785013488
20
-34.374209960279629
30
0
10
265.51346351978708
20
-34.374254879970316
30
0
10
265.51424918943928
20
-34.374299799660996
30
0
10
265.74130014551906
20
-34.387281157268255
30
0
10
265.97121888629096
20
-34.400108292785582
30
0
10
266.19122148202462
20
-34.460965915933969
30
0
10
266.40219076980225
20
-34.519324724695466
30
0
10
266.5984222285731
20
-34.620296560551353
30
0
10
266.79235635431621
20
-34.719761354020946
30
0
10
266.79323261413907
20
-34.720210769522055
30
0
10
266.79410887396187
20
-34.720660185023164
30
0
10
266.79498513378491
20
-34.721109600524372
30
0
0
SPLINE
5
114
100
AcDbEntity
8
INSETS D 0.1
100
AcDbSpline
70
0
71
3
72
17
73
13
74
0
42
0.000000001
43
0.0000000001
44
0.0000000001
40
-0.00029165894490082065
40
-0.00029165894490082065
40
-0.00029165894490082065
40
-0.00029165894490082065
40
0
40
0
40
0
40
0.063353185345891572
40
0.063353185345891572
40
0.063353185345891572
40
0.12689701645124005
40
0.12689701645124005
40
0.12689701645124005
40
0.12714404030682505
40
0.12714404030682505
40
0.12714404030682505
40
0.12714404030682505
10
266.79498513378479
20
-34.721109600523697
30
0
10
266.79578689716118
20
-34.721681423103874
30
0
10
266.79658866053757
20
-34.722253245684037
30
0
10
266.79739042391395
20
-34.722825068264193
30
0
10
266.97154679619274
20
-34.84703446605382
30
0
10
267.14824168747276
20
-34.972653024347849
30
0
10
267.2924686303358
20
-35.131921207429684
30
0
10
267.4371295885511
20
-35.291668668760202
30
0
10
267.54486688984269
20
-35.480564273377254
30
0
10
267.65145181941045
20
-35.666784856829203
30
0
10
267.65186616364798
20
-35.667508781177375
30
0
10
267.65228050788551
20
-35.668232705525554
30
0
10
267.65269485212309
20
-35.668956629873769
30
0
0
SPLINE
5
115
100
AcDbEntity
8
INSETS D 0.1
100
AcDbSpline
70
0
71
3
72
17
73
13
74
0
42
0.000000001
43
0.0000000001
44
0.0000000001
40
-0.00024822099985282353
40
-0.00024822099985282353
40
-0.00024822099985282353
40
-0.00024822099985282353
40
0
40
0
40
0
40
0.064399763083495501
40
0.064399763083495501
40
0.064399763083495501
40
0.12891860036161162
40
0.12891860036161162
40
0.12891860036161162
40
0.1291303902398788
40
0.1291303902398788
40
0.1291303902398788
40
0.1291303902398788
10
267.65269485212337
20
-35.668956629873307
30
0
10
267.65301692785107
20
-35.669726054878609
30
0
10
267.65333900357865
20
-35.670495479883655
30
0
10
267.65366107930629
20
-35.671264904888716
30
0
10
267.73722210181046
20
-35.870888579215936
30
0
10
267.82185432206398
20
-36.072548654107024
30
0
10
267.87064502122871
20
-36.284929343070338
30
0
10
267.91952593366341
20
-36.497702720737458
30
0
10
267.93134261961444
20
-36.71649153498911
30
0
10
267.94323557701853
20
-36.93297624338571
30
0
10
267.94327461690375
20
-36.933686877240405
30
0
10
267.94331365678892
20
-36.934397511095121
30
0
10
267.94335269667408
20
-36.935108144949595
30
0
0
SPLINE
5
116
100
AcDbEntity
8
INSETS D 0.1
100
AcDbSpline
70
0
71
3
72
17
73
13
74
0
42
0.000000001
43
0.0000000001
44
0.0000000001
40
-0.00020830896542839688
40
-0.00020830896542839688
40
-0.00020830896542839688
40
-0.00020830896542839688
40
0
40
0
40
0
40
0.11222505445014162
40
0.11222505445014162
40
0.11222505445014162
40
0.21000191952690289
40
0.21000191952690289
40
0.21000191952690289
40
0.2104888172893937
40
0.2104888172893937
40
0.2104888172893937
40
0.2104888172893937
10
267.94335269667022
20
-36.935108144950306
30
0
10
267.94331680012431
20
-36.935818944493825
30
0
10
267.9432809035784
20
-36.9365297440376
30
0
10
267.94324500703243
20
-36.937240543581346
30
0
10
267.92390598426613
20
-37.320179018389659
30
0
10
267.90504072921328
20
-37.707261620923667
30
0
10
267.77361424023701
20
-38.059106748521224
30
0
10
267.65910799078046
20
-38.365654281401284
30
0
10
267.46188439699603
20
-38.638147177040679
30
0
10
267.26715655682574
20
-38.908073919515338
30
0
10
267.26618687397081
20
-38.909418069042367
30
0
10
267.26521719111588
20
-38.910762218569396
30
0
10
267.26424750826095
20
-38.912106368096346
30
0
0
SPLINE
5
117
100
AcDbEntity
8
INSETS D 0.1
100
AcDbSpline
70
0
71
3
72
17
73
13
74
0
42
0.000000001
43
0.0000000001
44
0.0000000001
40
-0.00048446197527240368
40
-0.00048446197527240368
40
-0.00048446197527240368
40
-0.00048446197527240368
40
0
40
0
40
0
40
0.09302150464806877
40
0.09302150464806877
40
0.09302150464806877
40
0.19063218021716552
40
0.19063218021716552
40
0.19063218021716552
40
0.19090086184574506
40
0.19090086184574506
40
0.19090086184574506
40
0.19090086184574506
10
267.26424750826135
20
-38.912106368096119
30
0
10
267.26298147757456
20
-38.913176035844145
30
0
10
267.26171544688805
20
-38.914245703592087
30
0
10
267.26044941620154
20
-38.915315371340029
30
0
10
267.01735896657641
20
-39.12070218902025
30
0
10
266.77163407834342
20
-39.329206761439565
30
0
10
266.48431100993588
20
-39.449939629310336
30
0
10
266.18281299697691
20
-39.576628794797898
30
0
10
265.84512405366138
20
-39.602634380828761
30
0
10
265.51172565891721
20
-39.629049690891563
30
0
10
265.51080795167729
20
-39.629122401263508
30
0
10
265.50989024443732
20
-39.629195111635468
30
0
10
265.50897253719739
20
-39.629267822007414
30
0
0
SPLINE
5
118
100
AcDbEntity
8
INSETS D 0.1
100
AcDbSpline
70
0
71
3
72
17
73
13
74
0
42
0.000000001
43
0.0000000001
44
0.0000000001
40
-0.00027296489270583102
40
-0.00027296489270583102
40
-0.00027296489270583102
40
-0.00027296489270583102
40
0
40
0
40
0
40
0.066343029980303517
40
0.066343029980303517
40
0.066343029980303517
40
0.1303518988614375
40
0.1303518988614375
40
0.1303518988614375
40
0.13064297354742191
40
0.13064297354742191
40
0.13064297354742191
40
0.13064297354742191
10
265.50897253719751
20
-39.629267822007421
30
0
10
265.50805345470326
20
-39.629215279214947
30
0
10
265.50713437220884
20
-39.629162736422472
30
0
10
265.50621528971448
20
-39.629110193629998
30
0
10
265.28283595007247
20
-39.616339877192019
30
0
10
265.05666809529328
20
-39.603710459119064
30
0
10
264.83970432490804
20
-39.545065137044702
30
0
10
264.6303740375414
20
-39.488483145955904
30
0
10
264.43511418902949
20
-39.390553431221001
30
0
10
264.24212126556534
20
-39.29406944773698
30
0
10
264.24124364726686
20
-39.29363069533148
30
0
10
264.24036602896842
20
-39.293191942925979
30
0
10
264.23948841066971
20
-39.292753190520372
30
0
0
SPLINE
5
119
100
AcDbEntity
8
INSETS D 0.1
100
AcDbSpline
70
0
71
3
72
11
73
7
74
0
42
0.000000001
43
0.0000000001
44
0.0000000001
40
0.00028784770555311396
40
0.00028784770555311396
40
0.00028784770555311396
40
0.00028784770555311396
40
0.067245766025088305
40
0.067245766025088305
40
0.067245766025088305
40
0.13763793247811468
40
0.13763793247811468
40
0.13763793247811468
40
0.13763793247811468
10
262.09253978149991
20
-35.661264779745494
30
0
10
262.18166311215214
20
-35.867984857442089
30
0
10
262.26951015595318
20
-36.072688593961509
30
0
10
262.31938650086767
20
-36.283701980615916
30
0
10
262.37182098600999
20
-36.505538169822238
30
0
10
262.38352069650989
20
-36.739558731461671
30
0
10
262.39498876774434
20
-36.976069547929441
30
0
0
SPLINE
5
11A
100
AcDbEntity
8
INSETS D 0.1
100
AcDbSpline
70
0
71
3
72
11
73
7
74
0
42
0.000000001
43
0.0000000001
44
0.0000000001
40
0.0002784666449261954
40
0.0002784666449261954
40
0.0002784666449261954
40
0.0002784666449261954
40
0.065412827556471639
40
0.065412827556471639
40
0.065412827556471639
40
0.13010086353427561
40
0.13010086353427561
40
0.13010086353427561
40
0.13010086353427561
10
261.20072443450852
20
-34.766138361992198
30
0
10
261.38809354795563
20
-34.882177609453507
30
0
10
261.57247079856046
20
-34.997060434002826
30
0
10
261.71914652774137
20
-35.144600369262463
30
0
10
261.86481718012107
20
-35.291129305858611
30
0
10
261.97811205288241
20
-35.474708256889286
30
0
10
262.0925397814998
20
-35.661264779745537
30
0
0
SPLINE
5
11B
100
AcDbEntity
8
INSETS D 0.1
100
AcDbSpline
70
0
71
3
72
11
73
7
74
0
42
0.000000001
43
0.0000000001
44
0.0000000001
40
0.00019322583754636627
40
0.00019322583754636627
40
0.00019322583754636627
40
0.00019322583754636627
40
0.070742814262604564
40
0.070742814262604564
40
0.070742814262604564
40
0.13828944596931889
40
0.13828944596931889
40
0.13828944596931889
40
0.13828944596931889
10
259.88087455561163
20
-34.4552806029184
30
0
10
260.11795684691373
20
-34.46725054007392
30
0
10
260.35251488295341
20
-34.479449637421872
30
0
10
260.5744924216022
20
-34.532976526475608
30
0
10
260.78702144388274
20
-34.584225033263991
30
0
10
260.99284953858313
20
-34.674522211166689
30
0
10
261.20072443450874
20
-34.766138361991757
30
0
0
SPLINE
5
11C
100
AcDbEntity
8
INSETS D 0.1
100
AcDbSpline
70
0
71
3
72
11
73
7
74
0
42
0.000000001
43
0.0000000001
44
0.0000000001
40
0.00018186693401734186
40
0.00018186693401734186
40
0.00018186693401734186
40
0.00018186693401734186
40
0.054544502550682737
40
0.054544502550682737
40
0.054544502550682737
40
0.10846109650681798
40
0.10846109650681798
40
0.10846109650681798
40
0.10846109650681798
10
258.83125976327631
20
-34.648738776553024
30
0
10
259.00424654993117
20
-34.591734806536984
30
0
10
259.17555082217768
20
-34.535504885479902
30
0
10
259.34939903993148
20
-34.50359676805148
30
0
10
259.52182084509792
20
-34.471950454516865
30
0
10
259.70043125710225
20
-34.463551819659138
30
0
10
259.88087455561174
20
-34.455280602919196
30
0
0
SPLINE
5
11D
100
AcDbEntity
8
INSETS D 0.1
100
AcDbSpline
70
0
71
3
72
11
73
7
74
0
42
0.000000001
43
0.0000000001
44
0.0000000001
40
0.0020206274843214442
40
0.0020206274843214442
40
0.0020206274843214442
40
0.0020206274843214442
40
0.060120681107798592
40
0.060120681107798592
40
0.060120681107798592
40
0.11655431545015878
40
0.11655431545015878
40
0.11655431545015878
40
0.11655431545015878
10
257.85121095447988
20
-35.216053035074538
30
0
10
258.00682536780408
20
-35.099671557541555
30
0
10
258.16165780825776
20
-34.984922816596239
30
0
10
258.32629577456208
20
-34.890241813480237
30
0
10
258.48621161301389
20
-34.7982764403733
30
0
10
258.65800546320179
20
-34.723739388391984
30
0
10
258.83125976327631
20
-34.648738776553017
30
0
0
LINE
5
11E
100
AcDbEntity
8
INSETS D 0.1
100
AcDbLine
10
257.85121095447988
20
-35.216053035074538
30
0
11
257.85121095447988
21
-37.010594291955655
31
0
0
LINE
5
11F
100
AcDbEntity
8
INSETS D 0.1
100
AcDbLine
10
257.85121095447988
20
-37.010594291955655
30
0
11
259.88821789913624
21
-37.007314146614981
31
0
0
LINE
5
120
100
AcDbEntity
8
INSETS D 0.1
100
AcDbLine
10
259.88821789913624
20
-37.007314146614981
30
0
11
259.88821789913624
21
-36.501618578910829
31
0
0
LINE
5
121
100
AcDbEntity
8
INSETS D 0.1
100
AcDbLine
10
259.88821789913624
20
-36.501618578910829
30
0
11
258.41823146038502
21
-36.501618578910829
31
0
0
LINE
5
122
100
AcDbEntity
8
INSETS D 0.1
100
AcDbLine
10
258.41823146038502
20
-36.501618578910829
30
0
11
258.41823146038502
21
-35.509818336987053
31
0
0
SPLINE
5
123
100
AcDbEntity
8
INSETS D 0.1
100
AcDbSpline
70
0
71
3
72
17
73
13
74
0
42
0.000000001
43
0.0000000001
44
0.0000000001
40
-0.00011854275479862098
40
-0.00011854275479862098
40
-0.00011854275479862098
40
-0.00011854275479862098
40
0
40
0
40
0
40
0.039837055096837264
40
0.039837055096837264
40
0.039837055096837264
40
0.071651511076662538
40
0.071651511076662538
40
0.071651511076662538
40
0.073663575930263792
40
0.073663575930263792
40
0.073663575930263792
40
0.073663575930263792
10
259.0648730392104
20
-35.139214845787023
30
0
10
259.06450700167295
20
-35.139368704897535
30
0
10
259.06414096413596
20
-35.139522564007841
30
0
10
259.06377492659897
20
-35.139676423118139
30
0
10
258.94076565831733
20
-35.191381766594418
30
0
10
258.81599287718439
20
-35.243687734469276
30
0
10
258.69897444520677
20
-35.313143615334873
30
0
10
258.60552181061985
20
-35.368612099613316
30
0
10
258.5193758874816
20
-35.433617283195645
30
0
10
258.43436136652861
20
-35.497666250302892
30
0
10
258.42898473114747
20
-35.501716945864302
30
0
10
258.42360809576627
20
-35.505767641425699
30
0
10
258.41823146038502
20
-35.509818336987095
30
0
0
SPLINE
5
124
100
AcDbEntity
8
INSETS D 0.1
100
AcDbSpline
70
0
71
3
72
17
73
13
74
0
42
0.000000001
43
0.0000000001
44
0.0000000001
40
-0.00021170354998885149
40
-0.00021170354998885149
40
-0.00021170354998885149
40
-0.00021170354998885149
40
0
40
0
40
0
40
0.042663362365155014
40
0.042663362365155014
40
0.042663362365155014
40
0.085919919057854496
40
0.085919919057854496
40
0.085919919057854496
40
0.086038340297221821
40
0.086038340297221821
40
0.086038340297221821
40
0.086038340297221821
10
259.91860797972549
20
-34.97104045097624
30
0
10
259.91789908869572
20
-34.97107558606919
30
0
10
259.91719019766583
20
-34.971110721162141
30
0
10
259.916481306636
20
-34.971145856255092
30
0
10
259.7736226966299
20
-34.978226423408515
30
0
10
259.62882527155591
20
-34.985260625100693
30
0
10
259.48608087470654
20
-35.01320431301459
30
0
10
259.34135174993582
20
-35.041536531889065
30
0
10
259.20277343551481
20
-35.090572783437366
30
0
10
259.06599638162351
20
-35.13881860551195
30
0
10
259.065621934153
20
-35.138950685605266
30
0
10
259.06524748668244
20
-35.139082765698582
30
0
10
259.06487303921256
20
-35.139214845791649
30
0
0
SPLINE
5
125
100
AcDbEntity
8
INSETS D 0.1
100
AcDbSpline
70
0
71
3
72
17
73
13
74
0
42
0.000000001
43
0.0000000001
44
0.0000000001
40
-0.00027597488506174884
40
-0.00027597488506174884
40
-0.00027597488506174884
40
-0.00027597488506174884
40
0
40
0
40
0
40
0.048225298029654688
40
0.048225298029654688
40
0.048225298029654688
40
0.096623909637447436
40
0.096623909637447436
40
0.096623909637447436
40
0.096835053205033716
40
0.096835053205033716
40
0.096835053205033716
40
0.096835053205033716
10
260.8714666141982
20
-35.193724591336192
30
0
10
260.87061349413193
20
-35.193360259799178
30
0
10
260.86976037406572
20
-35.192995928262171
30
0
10
260.86890725399951
20
-35.192631596725164
30
0
10
260.71982858171839
20
-35.128966394183799
30
0
10
260.56868627620383
20
-35.064192144036873
30
0
10
260.40861446964868
20
-35.026732074335534
30
0
10
260.24796739204936
20
-34.989137379468922
30
0
10
260.08317561999291
20
-34.980188321400647
30
0
10
259.92073398123648
20
-34.971158629656259
30
0
10
259.92002531406621
20
-34.971119236763244
30
0
10
259.91931664689599
20
-34.971079843870228
30
0
10
259.91860797972583
20
-34.97104045097722
30
0
0
SPLINE
5
126
100
AcDbEntity
8
INSETS D 0.1
100
AcDbSpline
70
0
71
3
72
17
73
13
74
0
42
0.000000001
43
0.0000000001
44
0.0000000001
40
-0.0003220176605457757
40
-0.0003220176605457757
40
-0.0003220176605457757
40
-0.0003220176605457757
40
0
40
0
40
0
40
0.048346017234542529
40
0.048346017234542529
40
0.048346017234542529
40
0.095938443524381314
40
0.095938443524381314
40
0.095938443524381314
40
0.09621228462436357
40
0.09621228462436357
40
0.09621228462436357
40
0.09621228462436357
10
261.55952655248507
20
-35.880175099173741
30
0
10
261.55896109555181
20
-35.879241849012622
30
0
10
261.55839563861826
20
-35.878308598851049
30
0
10
261.55783018168478
20
-35.877375348689483
30
0
10
261.47293548799854
20
-35.737262137758989
30
0
10
261.38671016910001
20
-35.594131392966958
30
0
10
261.26906314921865
20
-35.477390588390769
30
0
10
261.15324994593533
20
-35.36246947483027
30
0
10
261.0120663278409
20
-35.278162466598168
30
0
10
260.87385241295493
20
-35.195157394949319
30
0
10
260.87305714670282
20
-35.194679793744747
30
0
10
260.87226188045071
20
-35.194202192540175
30
0
10
260.87146661419848
20
-35.193724591335524
30
0
0
SPLINE
5
127
100
AcDbEntity
8
INSETS D 0.1
100
AcDbSpline
70
0
71
3
72
17
73
13
74
0
42
0.000000001
43
0.0000000001
44
0.0000000001
40
-0.00014611151072055801
40
-0.00014611151072055801
40
-0.00014611151072055801
40
-0.00014611151072055801
40
0
40
0
40
0
40
0.061660755942523147
40
0.061660755942523147
40
0.061660755942523147
40
0.11500967159158457
40
0.11500967159158457
40
0.11500967159158457
40
0.11533446424741228
40
0.11533446424741228
40
0.11533446424741228
40
0.11533446424741228
10
261.79393670702859
20
-37.017259338483839
30
0
10
261.79392131591322
20
-37.016767969254609
30
0
10
261.79390592479774
20
-37.016276600024284
30
0
10
261.79389053368232
20
-37.015785230793924
30
0
10
261.78739530406256
20
-36.808421703899072
30
0
10
261.78106733596553
20
-36.598509861695078
30
0
10
261.73537908601446
20
-36.394295229832458
30
0
10
261.69584959021876
20
-36.217608632287373
30
0
10
261.62780489644672
20
-36.049429456660889
30
0
10
261.56075123732455
20
-35.883210955540811
30
0
10
261.56034300904537
20
-35.882199003418279
30
0
10
261.55993478076624
20
-35.88118705129574
30
0
10
261.55952655248711
20
-35.880175099173158
30
0
0
SPLINE
5
128
100
AcDbEntity
8
INSETS D 0.1
100
AcDbSpline
70
0
71
3
72
17
73
13
74
0
42
0.000000001
43
0.0000000001
44
0.0000000001
40
-0.0002105017587390348
40
-0.0002105017587390348
40
-0.0002105017587390348
40
-0.0002105017587390348
40
0
40
0
40
0
40
0.050423364585632485
40
0.050423364585632485
40
0.050423364585632485
40
0.10290907532506771
40
0.10290907532506771
40
0.10290907532506771
40
0.1030556543252819
40
0.1030556543252819
40
0.1030556543252819
40
0.1030556543252819
10
261.59995570325532
20
-38.038534469062959
30
0
10
261.60018823637421
20
-38.037868076494455
30
0
10
261.60042076949333
20
-38.037201683925083
30
0
10
261.6006533026125
20
-38.036535291355705
30
0
10
261.65635403554296
20
-37.876908332969379
30
0
10
261.71282860258083
20
-37.715498262680974
30
0
10
261.74542031037322
20
-37.547444517246944
30
0
10
261.77934503875571
20
-37.372517271831803
30
0
10
261.78657473491046
20
-37.194612949213351
30
0
10
261.79387553928336
20
-37.018732900792045
30
0
10
261.7938959285396
20
-37.018241713356666
30
0
10
261.79391631779583
20
-37.017750525921272
30
0
10
261.79393670705218
20
-37.017259338485218
30
0
0
SPLINE
5
129
100
AcDbEntity
8
INSETS D 0.1
100
AcDbSpline
70
0
71
3
72
17
73
13
74
0
42
0.000000001
43
0.0000000001
44
0.0000000001
40
-0.0002224236829961345
40
-0.0002224236829961345
40
-0.0002224236829961345
40
-0.0002224236829961345
40
0
40
0
40
0
40
0.029716305019983784
40
0.029716305019983784
40
0.029716305019983784
40
0.058873188354586659
40
0.058873188354586659
40
0.058873188354586659
40
0.059083989359641237
40
0.059083989359641237
40
0.059083989359641237
40
0.059083989359641237
10
261.27661529345789
20
-38.545376833749813
30
0
10
261.2770920522234
20
-38.544804635224878
30
0
10
261.27756881098856
20
-38.544232436700355
30
0
10
261.27804556975371
20
-38.543660238175825
30
0
10
261.34174161459555
20
-38.467213226524315
30
0
10
261.4066315982999
20
-38.389509797302949
30
0
10
261.46144737785892
20
-38.303274285850961
30
0
10
261.51523122778309
20
-38.21866219343184
30
0
10
261.55745455856294
20
-38.12876555427308
30
0
10
261.5990534375307
20
-38.040450003719243
30
0
10
261.59935419277241
20
-38.039811492167587
30
0
10
261.59965494801418
20
-38.039172980615938
30
0
10
261.59995570325572
20
-38.03853446906475
30
0
0
SPLINE
5
12A
100
AcDbEntity
8
INSETS D 0.1
100
AcDbSpline
70
0
71
3
72
17
73
13
74
0
42
0.000000001
43
0.0000000001
44
0.0000000001
40
-0.00021951954814163619
40
-0.00021951954814163619
40
-0.00021951954814163619
40
-0.00021951954814163619
40
0
40
0
40
0
40
0.033893198364910525
40
0.033893198364910525
40
0.033893198364910525
40
0.064963653964167936
40
0.064963653964167936
40
0.064963653964167936
40
0.065185478670439667
40
0.065185478670439667
40
0.065185478670439667
40
0.065185478670439667
10
260.72819255739773
20
-38.918642403815511
30
0
10
260.72886176397964
20
-38.918332141783708
30
0
10
260.72953097056137
20
-38.918021879752033
30
0
10
260.73020017714305
20
-38.917711617720357
30
0
10
260.83352378368136
20
-38.869808036133676
30
0
10
260.93904758967915
20
-38.82111274438661
30
0
10
261.03513054558829
20
-38.754354526599073
30
0
10
261.12321138066545
20
-38.693156164044986
30
0
10
261.1998152235949
20
-38.619239840280891
30
0
10
261.27500486454528
20
-38.546925675067037
30
0
10
261.2755416741831
20
-38.546409394627986
30
0
10
261.27607848382098
20
-38.545893114188942
30
0
10
261.2766152934588
20
-38.545376833749941
30
0
0
SPLINE
5
12B
100
AcDbEntity
8
INSETS D 0.1
100
AcDbSpline
70
0
71
3
72
17
73
13
74
0
42
0.000000001
43
0.0000000001
44
0.0000000001
40
-0.00013897582554477127
40
-0.00013897582554477127
40
-0.00013897582554477127
40
-0.00013897582554477127
40
0
40
0
40
0
40
0.042432750814654668
40
0.042432750814654668
40
0.042432750814654668
40
0.080040522959707427
40
0.080040522959707427
40
0.080040522959707427
40
0.080260573458656614
40
0.080260573458656614
40
0.080260573458656614
40
0.080260573458656614
10
259.92852428513129
20
-39.059622981418279
30
0
10
259.92899034487527
20
-39.059609113570502
30
0
10
259.92945640461932
20
-39.059595245722718
30
0
10
259.9299224643633
20
-39.059581377874942
30
0
10
260.07222201109988
20
-39.055347181552996
30
0
10
260.21663378901616
20
-39.05121866057457
30
0
10
260.35913750652179
20
-39.024366019445281
30
0
10
260.48543729229772
20
-39.000566760860927
30
0
10
260.6066281683639
20
-38.959597534301913
30
0
10
260.72609547697755
20
-38.919348911722935
30
0
10
260.72679450378422
20
-38.919113409086762
30
0
10
260.72749353059095
20
-38.918877906450589
30
0
10
260.72819255739768
20
-38.918642403814395
30
0
0
SPLINE
5
12C
100
AcDbEntity
8
INSETS D 0.1
100
AcDbSpline
70
0
71
3
72
17
73
13
74
0
42
0.000000001
43
0.0000000001
44
0.0000000001
40
-0.00020320010950266557
40
-0.00020320010950266557
40
-0.00020320010950266557
40
-0.00020320010950266557
40
0
40
0
40
0
40
0.034191163768597425
40
0.034191163768597425
40
0.034191163768597425
40
0.070492735418851205
40
0.070492735418851205
40
0.070492735418851205
40
0.070631706710241438
40
0.070631706710241438
40
0.070631706710241438
40
0.070631706710241438
10
259.22431710052712
20
-38.925282289921597
30
0
10
259.22495944033801
20
-38.925509844856947
30
0
10
259.22560178014891
20
-38.925737399792276
30
0
10
259.2262441199598
20
-38.925964954727604
30
0
10
259.33432647150761
20
-38.964254146989468
30
0
10
259.44421022916424
20
-39.00333758672717
30
0
10
259.55936612818471
20
-39.026009233883812
30
0
10
259.68162988461995
20
-39.05008026080926
30
0
10
259.80542432362438
20
-39.054782381920475
30
0
10
259.92712656730259
20
-39.059568019643493
30
0
10
259.92759247324557
20
-39.059586340234709
30
0
10
259.92805837918849
20
-39.059604660825919
30
0
10
259.92852428513157
20
-39.059622981417142
30
0
0
SPLINE
5
12D
100
AcDbEntity
8
INSETS D 0.1
100
AcDbSpline
70
0
71
3
72
17
73
13
74
0
42
0.000000001
43
0.0000000001
44
0.0000000001
40
-0.00033342726406398169
40
-0.00033342726406398169
40
-0.00033342726406398169
40
-0.00033342726406398169
40
0
40
0
40
0
40
0.028250457203958947
40
0.028250457203958947
40
0.028250457203958947
40
0.059683966106866763
40
0.059683966106866763
40
0.059683966106866763
40
0.0598861402170036
40
0.0598861402170036
40
0.0598861402170036
40
0.0598861402170036
10
258.73012345150443
20
-38.563050816349225
30
0
10
258.73088102186523
20
-38.56387895331487
30
0
10
258.7316385922262
20
-38.56470709028067
30
0
10
258.73239616258712
20
-38.565535227246464
30
0
10
258.79658320236348
20
-38.635701198756919
30
0
10
258.86225761885584
20
-38.707843709607054
30
0
10
258.9408314307023
20
-38.767077176734041
30
0
10
259.02825835609258
20
-38.832984631004379
30
0
10
259.12666965864202
20
-38.879152409289802
30
0
10
259.22246862061866
20
-38.924409044745801
30
0
10
259.22308478058829
20
-38.924700126471016
30
0
10
259.22370094055788
20
-38.924991208196232
30
0
10
259.2243171005274
20
-38.925282289921398
30
0
0
SPLINE
5
12E
100
AcDbEntity
8
INSETS D 0.1
100
AcDbSpline
70
0
71
3
72
14
73
10
74
0
42
0.000000001
43
0.0000000001
44
0.0000000001
40
0.003871214681751231
40
0.003871214681751231
40
0.003871214681751231
40
0.003871214681751231
40
0.036366130135465052
40
0.036366130135465052
40
0.036366130135465052
40
0.066490060764678532
40
0.066490060764678532
40
0.066490060764678532
40
0.066825268041154531
40
0.066825268041154531
40
0.066825268041154531
40
0.066825268041154531
10
258.45573514770791
20
-37.987292168061401
30
0
10
258.48878679548511
20
-38.091452494737737
30
0
10
258.52360565245993
20
-38.196497623667796
30
0
10
258.57238364952286
20
-38.296714566094813
30
0
10
258.61760257005983
20
-38.389619199924205
30
0
10
258.67343638369795
20
-38.475582611933469
30
0
10
258.72829220921813
20
-38.560225207600993
30
0
10
258.72890262331373
20
-38.561167077183569
30
0
10
258.72951303740939
20
-38.562108946766152
30
0
10
258.73012345150516
20
-38.563050816348962
30
0
0
LINE
5
12F
100
AcDbEntity
8
INSETS D 0.1
100
AcDbLine
10
258.45573514770791
20
-37.987292168061401
30
0
11
257.93603694791051
21
-38.129837992627927
31
0
0
SPLINE
5
130
100
AcDbEntity
8
INSETS D 0.1
100
AcDbSpline
70
0
71
3
72
11
73
7
74
0
42
0.000000001
43
0.0000000001
44
0.0000000001
40
0.00032367422808065547
40
0.00032367422808065547
40
0.00032367422808065547
40
0.00032367422808065547
40
0.042275549522525893
40
0.042275549522525893
40
0.042275549522525893
40
0.086602029756854368
40
0.086602029756854368
40
0.086602029756854368
40
0.086602029756854368
10
258.29608895610016
20
-38.894854920131536
30
0
10
258.21746233271557
20
-38.778194097067754
30
0
10
258.14017026529513
20
-38.662984481843068
30
0
10
258.08170476058103
20
-38.541141815532981
30
0
10
258.01992992880275
20
-38.41240248023545
30
0
10
257.97732006403754
20
-38.272449245215178
30
0
10
257.93603694791051
20
-38.12983799262787
30
0
0
SPLINE
5
131
100
AcDbEntity
8
INSETS D 0.1
100
AcDbSpline
70
0
71
3
72
11
73
7
74
0
42
0.000000001
43
0.0000000001
44
0.0000000001
40
0.00020877722069614563
40
0.00020877722069614563
40
0.00020877722069614563
40
0.00020877722069614563
40
0.044386205768215198
40
0.044386205768215198
40
0.044386205768215198
40
0.084778836797116716
40
0.084778836797116716
40
0.084778836797116716
40
0.084778836797116716
10
258.96639459957368
20
-39.371869691831741
30
0
10
258.83083932365219
20
-39.310302979601666
30
0
10
258.69795577321975
20
-39.249484817121576
30
0
10
258.584492241161
20
-39.166717206851892
30
0
10
258.48074943094383
20
-39.091040517359403
30
0
10
258.38911804855564
20
-38.994008526345148
30
0
10
258.29608895609999
20
-38.894854920131671
30
0
0
SPLINE
5
132
100
AcDbEntity
8
INSETS D 0.1
100
AcDbSpline
70
0
71
3
72
11
73
7
74
0
42
0.000000001
43
0.0000000001
44
0.0000000001
40
0.00016372444116687614
40
0.00016372444116687614
40
0.00016372444116687614
40
0.00016372444116687614
40
0.051814996348388258
40
0.051814996348388258
40
0.051814996348388258
40
0.09986520911997615
40
0.09986520911997615
40
0.09986520911997615
40
0.09986520911997615
10
259.93193280540413
20
-39.544732635888771
30
0
10
259.75886152712451
20
-39.538531191065964
30
0
10
259.58779244941536
20
-39.532172387979621
30
0
10
259.42325572332214
20
-39.501537935377947
30
0
10
259.27019028261589
20
-39.473039276752537
30
0
10
259.11913627548404
20
-39.422854254229151
30
0
10
258.96639459957362
20
-39.371869691831812
30
0
0
SPLINE
5
133
100
AcDbEntity
8
INSETS D 0.1
100
AcDbSpline
70
0
71
3
72
11
73
7
74
0
42
0.000000001
43
0.0000000001
44
0.0000000001
40
0.00032571482074266844
40
0.00032571482074266844
40
0.00032571482074266844
40
0.00032571482074266844
40
0.0658058345709336
40
0.0658058345709336
40
0.0658058345709336
40
0.13640455615111885
40
0.13640455615111885
40
0.13640455615111885
40
0.13640455615111885
10
261.23266673435398
20
-39.242594467747402
30
0
10
261.03122673070834
20
-39.331637795454078
30
0
10
260.83182289698988
20
-39.419335234402133
30
0
10
260.62604162170112
20
-39.469163681651025
30
0
10
260.40417435853868
20
-39.522887234502157
30
0
10
260.16935511237102
20
-39.533929370167407
30
0
10
259.93193280540413
20
-39.544732635888636
30
0
0
SPLINE
5
134
100
AcDbEntity
8
INSETS D 0.1
100
AcDbSpline
70
0
71
3
72
11
73
7
74
0
42
0.000000001
43
0.0000000001
44
0.0000000001
40
0.00024636869086577329
40
0.00024636869086577329
40
0.00024636869086577329
40
0.00024636869086577329
40
0.066512708839901388
40
0.066512708839901388
40
0.066512708839901388
40
0.12998040276713327
40
0.12998040276713327
40
0.12998040276713327
40
0.12998040276713327
10
262.09379337071982
20
-38.320935708496776
30
0
10
261.98337803165259
20
-38.516381185697668
30
0
10
261.87404945651508
20
-38.708658493493424
30
0
10
261.72870046604965
20
-38.862066217534903
30
0
10
261.58949004309972
20
-39.008995027148366
30
0
10
261.41257110927256
20
-39.125195283025938
30
0
10
261.23266673435387
20
-39.242594467747246
30
0
0
SPLINE
5
135
100
AcDbEntity
8
INSETS D 0.1
100
AcDbSpline
70
0
71
3
72
11
73
7
74
0
42
0.000000001
43
0.0000000001
44
0.0000000001
40
0.00020033923308585824
40
0.00020033923308585824
40
0.00020033923308585824
40
0.00020033923308585824
40
0.070969113614656784
40
0.070969113614656784
40
0.070969113614656784
40
0.1402928880917455
40
0.1402928880917455
40
0.1402928880917455
40
0.1402928880917455
10
262.39498876774445
20
-36.976069547929441
30
0
10
262.38281802588966
20
-37.213556442963089
30
0
10
262.37045194885053
20
-37.448719632835584
30
0
10
262.31972586235008
20
-37.672758095049275
30
0
10
262.27003553195522
20
-37.892222003593943
30
0
10
262.18249822936502
20
-38.105594576082893
30
0
10
262.09379337071965
20
-38.320935708496663
30
0
0
LINE
5
136
100
AcDbEntity
8
INSETS D 0.1
100
AcDbLine
10
274.37222164256042
20
-36.512705966949468
30
0
11
276.18426261148863
21
-36.512705966949468
31
0
0
LINE
5
137
100
AcDbEntity
8
INSETS D 0.1
100
AcDbLine
10
276.18426261148863
20
-36.512705966949468
30
0
11
275.61484577049453
21
-38.033508665828222
31
0
0
SPLINE
5
138
100
AcDbEntity
8
INSETS D 0.1
100
AcDbSpline
70
0
71
3
72
14
73
10
74
0
42
0.000000001
43
0.0000000001
44
0.0000000001
40
-0.01536811172047179
40
-0.01536811172047179
40
-0.01536811172047179
40
-0.01536811172047179
40
0
40
0
40
0
40
0.049282646027225867
40
0.049282646027225867
40
0.049282646027225867
40
0.099250936708748863
40
0.099250936708748863
40
0.099250936708748863
40
0.099250936708748863
10
275.31381826994755
20
-39.133695215414988
30
0
10
275.32483023735585
20
-39.083616496605373
30
0
10
275.33584220476416
20
-39.033537777795743
30
0
10
275.34685417217247
20
-38.983459058986114
30
0
10
275.38216748207793
20
-38.822866019484422
30
0
10
275.41733504795775
20
-38.663041722140434
30
0
10
275.46139290176166
20
-38.506541123968432
30
0
10
275.50606371031483
20
-38.347863211727883
30
0
10
275.5603093685354
20
-38.191055096597289
30
0
10
275.61484577049453
20
-38.033508665828222
30
0
0
SPLINE
5
139
100
AcDbEntity
8
INSETS D 0.1
100
AcDbSpline
70
0
71
3
72
14
73
10
74
0
42
0.000000001
43
0.0000000001
44
0.0000000001
40
0
40
0
40
0
40
0
40
0.061119236717346016
40
0.061119236717346016
40
0.061119236717346016
40
0.10960466565562849
40
0.10960466565562849
40
0.10960466565562849
40
0.12498388157656823
40
0.12498388157656823
40
0.12498388157656823
40
0.12498388157656823
10
274.91466737140013
20
-37.952136735725453
30
0
10
274.98617097612811
20
-38.142969653563668
30
0
10
275.05750884068368
20
-38.333381831076842
30
0
10
275.12226160274469
20
-38.525551550876614
30
0
10
275.17362947989903
20
-38.677998338399995
30
0
10
275.22105900081152
20
-38.832161733876291
30
0
10
275.2685894036357
20
-38.986669288495726
30
0
10
275.28366569240637
20
-39.035677930802123
30
0
10
275.29874198117699
20
-39.08468657310852
30
0
10
275.31381826994766
20
-39.133695215414924
30
0
0
LINE
5
13A
100
AcDbEntity
8
INSETS D 0.1
100
AcDbLine
10
274.91466737140013
20
-37.952136735725453
30
0
11
274.37222164256042
21
-36.512705966949468
31
0
0
SPLINE
5
13B
100
AcDbEntity
8
INSETS D 0.1
100
AcDbSpline
70
0
71
3
72
11
73
7
74
0
42
0.000000001
43
0.0000000001
44
0.0000000001
40
0.00063473921972987855
40
0.00063473921972987855
40
0.00063473921972987855
40
0.00063473921972987855
40
0.065890089089189141
40
0.065890089089189141
40
0.065890089089189141
40
0.15626696334734547
40
0.15626696334734547
40
0.15626696334734547
40
0.15626696334734547
10
268.97831819119392
20
-37.003959195579348
30
0
10
269.1604249889707
20
-36.877192108792151
30
0
10
269.34029698161066
20
-36.753145037039005
30
0
10
269.53358448333103
20
-36.681111872616597
30
0
10
269.80128238509076
20
-36.581347910635785
30
0
10
270.10675992974984
20
-36.576892478129452
30
0
10
270.4169164454442
20
-36.573239393373896
30
0
0
LINE
5
13C
100
AcDbEntity
8
INSETS D 0.1
100
AcDbLine
10
271.73934054642172
20
-36.573242202281953
30
0
11
270.4169164454442
21
-36.573239393373896
31
0
0
LINE
5
13D
100
AcDbEntity
8
INSETS D 0.1
100
AcDbLine
10
271.73934054642172
20
-34.540500000000002
30
0
11
271.73934054642172
21
-36.573242202281953
31
0
0
LINE
5
13E
100
AcDbEntity
8
INSETS D 0.1
100
AcDbLine
10
272.32000515156238
20
-34.540500000000002
30
0
11
271.73934054642172
21
-34.540500000000002
31
0
0
LINE
5
13F
100
AcDbEntity
8
INSETS D 0.1
100
AcDbLine
10
272.32000515156238
20
-39.459500000000006
30
0
11
272.32000515156238
21
-34.540500000000002
31
0
0
LINE
5
140
100
AcDbEntity
8
INSETS D 0.1
100
AcDbLine
10
270.47454650452255
20
-39.459500196089927
30
0
11
272.32000515156238
21
-39.459500000000006
31
0
0
SPLINE
5
141
100
AcDbEntity
8
INSETS D 0.1
100
AcDbSpline
70
0
71
3
72
11
73
7
74
0
42
0.000000001
43
0.0000000001
44
0.0000000001
40
0
40
0
40
0
40
0
40
0.04392821609855025
40
0.04392821609855025
40
0.04392821609855025
40
0.076127796122612917
40
0.076127796122612917
40
0.076127796122612917
40
0.076127796122612917
10
270.47454650452255
20
-39.459500196089927
30
0
10
270.32792950576101
20
-39.459043948030633
30
0
10
270.18228893139485
20
-39.458555333706641
30
0
10
270.03835248536518
20
-39.447677835655099
30
0
10
269.93284642288558
20
-39.439704580647749
30
0
10
269.82701380085621
20
-39.426055732088976
30
0
10
269.72047963982612
20
-39.412271479538482
30
0
0
SPLINE
5
142
100
AcDbEntity
8
INSETS D 0.1
100
AcDbSpline
70
0
71
3
72
11
73
7
74
0
42
0.000000001
43
0.0000000001
44
0.0000000001
40
0.00014352687923170987
40
0.00014352687923170987
40
0.00014352687923170987
40
0.00014352687923170987
40
0.035003732181991015
40
0.035003732181991015
40
0.035003732181991015
40
0.066100411850565047
40
0.066100411850565047
40
0.066100411850565047
40
0.066100411850565047
10
269.72047963982607
20
-39.412271479538717
30
0
10
269.60569882178254
20
-39.38899350139377
30
0
10
269.49326143907865
20
-39.365898223733836
30
0
10
269.39013038471302
20
-39.325444840919573
30
0
10
269.29813341184274
20
-39.289358826050773
30
0
10
269.20971448580497
20
-39.23796133637719
30
0
10
269.11966411338108
20
-39.185240950140361
30
0
0
SPLINE
5
143
100
AcDbEntity
8
INSETS D 0.1
100
AcDbSpline
70
0
71
3
72
11
73
7
74
0
42
0.000000001
43
0.0000000001
44
0.0000000001
40
0.00030758352371768462
40
0.00030758352371768462
40
0.00030758352371768462
40
0.00030758352371768462
40
0.030534121909572269
40
0.030534121909572269
40
0.030534121909572269
40
0.063035993438078294
40
0.063035993438078294
40
0.063035993438078294
40
0.063035993438078294
10
269.11966411338108
20
-39.185240950140425
30
0
10
269.04075754507437
20
-39.121072068099323
30
0
10
268.9640370755875
20
-39.058143699330785
30
0
10
268.90276898377215
20
-38.985699193179443
30
0
10
268.83688887459266
20
-38.907801353809973
30
0
10
268.78507890290126
20
-38.814408861511446
30
0
10
268.73234477585493
20
-38.718476471664353
30
0
0
SPLINE
5
144
100
AcDbEntity
8
INSETS D 0.1
100
AcDbSpline
70
0
71
3
72
11
73
7
74
0
42
0.000000001
43
0.0000000001
44
0.0000000001
40
0.00022297994412428807
40
0.00022297994412428807
40
0.00022297994412428807
40
0.00022297994412428807
40
0.034503371520985607
40
0.034503371520985607
40
0.034503371520985607
40
0.070093211040207881
40
0.070093211040207881
40
0.070093211040207881
40
0.070093211040207881
10
268.73234477585476
20
-38.718476471664424
30
0
10
268.68837997005051
20
-38.61204422122902
30
0
10
268.6455654759215
20
-38.507574406487336
30
0
10
268.62143497781983
20
-38.401330112634987
30
0
10
268.59638273904858
20
-38.291027482060898
30
0
10
268.59036009931367
20
-38.173929763754103
30
0
10
268.58457356393581
20
-38.054474403521631
30
0
0
SPLINE
5
145
100
AcDbEntity
8
INSETS D 0.1
100
AcDbSpline
70
0
71
3
72
11
73
7
74
0
42
0.000000001
43
0.0000000001
44
0.0000000001
40
0.00024912799854046876
40
0.00024912799854046876
40
0.00024912799854046876
40
0.00024912799854046876
40
0.059744153882306257
40
0.059744153882306257
40
0.059744153882306257
40
0.11685573463217937
40
0.11685573463217937
40
0.11685573463217937
40
0.11685573463217937
10
268.58457356393575
20
-38.054474403521617
30
0
10
268.60023687922427
20
-37.852228855923336
30
0
10
268.61642411345036
20
-37.653925651422654
30
0
10
268.68327822328871
20
-37.479630171389807
30
0
10
268.74745407388752
20
-37.312317186239042
30
0
10
268.86130365185448
20
-37.159322498715106
30
0
10
268.97831819119392
20
-37.003959195579334
30
0
0
LWPOLYLINE
5
146
100
AcDbEntity
8
INSETS D 0.1
100
AcDbPolyline
90
12
70
1
43
0.0
10
248.77549302845449
20
-37.33808128547669
10
251.5415252473876
20
-37.33808128547669
10
251.5415252473876
20
-38.95045901823044
10
248.58791005878896
20
-38.95045901823044
10
248.58791005878896
20
-39.459500000000006
10
252.12218925648185
20
-39.459500000000006
10
252.12218925648185
20
-34.540500000000002
10
248.47194803028555
20
-34.540500000000002
10
248.47194803028555
20
-35.049540683746343
10
251.5415252473876
20
-35.049540683746343
10
251.5415252473876
20
-36.832450881481172
10
248.77549302845449
20
-36.832450881481172
0
SPLINE
5
147
100
AcDbEntity
8
INSETS D 0.1
100
AcDbSpline
70
0
71
3
72
17
73
13
74
0
42
0.000000001
43
0.0000000001
44
0.0000000001
40
-0.00065465431882925874
40
-0.00065465431882925874
40
-0.00065465431882925874
40
-0.00065465431882925874
40
0
40
0
40
0
40
0.03512895758853387
40
0.03512895758853387
40
0.03512895758853387
40
0.074169445507393683
40
0.074169445507393683
40
0.074169445507393683
40
0.07440699891369329
40
0.07440699891369329
40
0.07440699891369329
40
0.07440699891369329
10
269.46927288206274
20
-37.32999786193767
30
0
10
269.46780946685396
20
-37.331696519397404
30
0
10
269.46634605164513
20
-37.333395176857053
30
0
10
269.4648826364363
20
-37.335093834316709
30
0
10
269.3863553139621
20
-37.426244330297315
30
0
10
269.30466229823418
20
-37.519998722148571
30
0
10
269.25626154208612
20
-37.632919159014605
30
0
10
269.20247147072121
20
-37.758413032271434
30
0
10
269.19437099416916
20
-37.896906564501158
30
0
10
269.18571021338744
20
-38.030810395101312
30
0
10
269.18565751430276
20
-38.031625172599519
30
0
10
269.18560481521814
20
-38.032439950097725
30
0
10
269.18555211613358
20
-38.033254727595782
30
0
0
SPLINE
5
148
100
AcDbEntity
8
INSETS D 0.1
100
AcDbSpline
70
0
71
3
72
17
73
13
74
0
42
0.000000001
43
0.0000000001
44
0.0000000001
40
-2.2541648965362975e-05
40
-2.2541648965362975e-05
40
-2.2541648965362975e-05
40
-2.2541648965362975e-05
40
0
40
0
40
0
40
0.055150007505495702
40
0.055150007505495702
40
0.055150007505495702
40
0.09557053396890608
40
0.09557053396890608
40
0.09557053396890608
40
0.096232926610229849
40
0.096232926610229849
40
0.096232926610229849
40
0.096232926610229849
10
270.40597725800819
20
-37.082283184136443
30
0
10
270.40590044456042
20
-37.082284058369041
30
0
10
270.40582363111264
20
-37.082284932601638
30
0
10
270.40574681766492
20
-37.082285806834236
30
0
10
270.21781636808089
20
-37.084424689152108
30
0
10
270.0258281466339
20
-37.08597291655564
30
0
10
269.84555476788881
20
-37.143911640478301
30
0
10
269.71342885883098
20
-37.186376072116659
30
0
10
269.59308742140752
20
-37.25737004357859
30
0
10
269.47507469385175
20
-37.326594603039126
30
0
10
269.4731407565888
20
-37.327729022671868
30
0
10
269.4712068193258
20
-37.328863442304595
30
0
10
269.46927288206302
20
-37.329997861937301
30
0
0
LINE
5
149
100
AcDbEntity
8
INSETS D 0.1
100
AcDbLine
10
270.40597725800819
20
-37.082283184136443
30
0
11
271.73934054642172
21
-37.082283184051519
31
0
0
LINE
5
14A
100
AcDbEntity
8
INSETS D 0.1
100
AcDbLine
10
271.73934054642172
20
-37.082283184051519
30
0
11
271.73934054642172
21
-38.95045901823044
31
0
0
LINE
5
14B
100
AcDbEntity
8
INSETS D 0.1
100
AcDbLine
10
271.73934054642172
20
-38.95045901823044
30
0
11
270.4200223369686
21
-38.950458654260302
31
0
0
SPLINE
5
14C
100
AcDbEntity
8
INSETS D 0.1
100
AcDbSpline
70
0
71
3
72
14
73
10
74
0
42
0.000000001
43
0.0000000001
44
0.0000000001
40
-0.00039240738753847397
40
-0.00039240738753847397
40
-0.00039240738753847397
40
-0.00039240738753847397
40
0
40
0
40
0
40
0.024020579983214496
40
0.024020579983214496
40
0.024020579983214496
40
0.061980130962101469
40
0.061980130962101469
40
0.061980130962101469
40
0.061980130962101469
10
269.79218976509088
20
-38.904976577235921
30
0
10
269.79348286227957
20
-38.905185345937532
30
0
10
269.79477595946827
20
-38.905394114639151
30
0
10
269.79606905665696
20
-38.905602883340762
30
0
10
269.87522389785977
20
-38.918382319850892
30
0
10
269.955221094276
20
-38.931325668534221
30
0
10
270.03651925701951
20
-38.939186345279424
30
0
10
270.16499416292555
20
-38.951608516594462
30
0
10
270.29318788942953
20
-38.950996379609101
30
0
10
270.4200223369686
20
-38.950458654260302
30
0
0
SPLINE
5
14D
100
AcDbEntity
8
INSETS D 0.1
100
AcDbSpline
70
0
71
3
72
17
73
13
74
0
42
0.000000001
43
0.0000000001
44
0.0000000001
40
-0.00034180352451173993
40
-0.00034180352451173993
40
-0.00034180352451173993
40
-0.00034180352451173993
40
0
40
0
40
0
40
0.026106816060817623
40
0.026106816060817623
40
0.026106816060817623
40
0.051949915585825089
40
0.051949915585825089
40
0.051949915585825089
40
0.052335584059784959
40
0.052335584059784959
40
0.052335584059784959
40
0.052335584059784959
10
269.35139830412771
20
-38.593881330802681
30
0
10
269.35214242972501
20
-38.594772671237401
30
0
10
269.35288655532224
20
-38.595664011672127
30
0
10
269.35363068091942
20
-38.596555352106854
30
0
10
269.41046669547018
20
-38.664635576877799
30
0
10
269.46916720777563
20
-38.735719087506787
30
0
10
269.54516805481001
20
-38.789179473910394
30
0
10
269.62040118355765
20
-38.84209983322404
30
0
10
269.70616012063272
20
-38.873230426876482
30
0
10
269.78850323256529
20
-38.903616194816564
30
0
10
269.78973207674051
20
-38.904069655623005
30
0
10
269.79096092091572
20
-38.904523116429452
30
0
10
269.79218976509082
20
-38.904976577235885
30
0
0
SPLINE
5
14E
100
AcDbEntity
8
INSETS D 0.1
100
AcDbSpline
70
0
71
3
72
17
73
13
74
0
42
0.000000001
43
0.0000000001
44
0.0000000001
40
-0.00024110317515914869
40
-0.00024110317515914869
40
-0.00024110317515914869
40
-0.00024110317515914869
40
0
40
0
40
0
40
0.029387044899768934
40
0.029387044899768934
40
0.029387044899768934
40
0.056711094602336934
40
0.056711094602336934
40
0.056711094602336934
40
0.057054416947087475
40
0.057054416947087475
40
0.057054416947087475
40
0.057054416947087475
10
269.18555211613472
20
-38.033254727595896
30
0
10
269.18559799747192
20
-38.034069917425334
30
0
10
269.185643878809
20
-38.034885107254823
30
0
10
269.1856897601462
20
-38.035700297084325
30
0
10
269.19128204201508
20
-38.135060332900544
30
0
10
269.19664138886668
20
-38.237688518183319
30
0
10
269.22706739320171
20
-38.336523777692044
30
0
10
269.25535746651582
20
-38.428420719095762
30
0
10
269.30341550702474
20
-38.510855377346608
30
0
10
269.34965531654098
20
-38.590865391442563
30
0
10
269.35023631240352
20
-38.591870704562048
30
0
10
269.35081730826602
20
-38.592876017681526
30
0
10
269.35139830412845
20
-38.593881330800748
30
0
0
LWPOLYLINE
5
14F
100
AcDbEntity
8
INSETS D 0.1
100
AcDbPolyline
90
8
70
1
43
0.0
10
275.6205327184897
20
-39.459500000000006
10
277.50961670971174
20
-34.540500000000002
10
276.89435675048793
20
-34.540500000000002
10
276.34524359607661
20
-36.054824545860292
10
274.1983238891234
20
-36.054824545860292
10
273.61510436092516
20
-34.540500000000002
10
272.94949072675286
20
-34.540500000000002
10
274.96272439740477
20
-39.459500000000006
0
LWPOLYLINE
5
150
100
AcDbEntity
8
INSETS D 0.1
100
AcDbPolyline
90
12
70
1
43
0.0
10
256.20046270161123
20
-37.33808128547669
10
256.20046270161123
20
-38.95045901823044
10
253.2468475130126
20
-38.95045901823044
10
253.2468475130126
20
-39.459500000000006
10
256.78112671070545
20
-39.459500000000006
10
256.78112671070545
20
-34.540500000000002
10
253.13088548450918
20
-34.540500000000002
10
253.13088548450918
20
-35.049540683746343
10
256.20046270161123
20
-35.049540683746343
10
256.20046270161123
20
-36.832450881481172
10
253.43443048267812
20
-36.832450881481172
10
253.43443048267812
20
-37.33808128547669
0
SPLINE
5
151
100
AcDbEntity
8
INSETS D 0.1
100
AcDbSpline
70
0
71
3
72
11
73
7
74
0
42
0.000000001
43
0.0000000001
44
0.0000000001
40
0.00056552141930054289
40
0.00056552141930054289
40
0.00056552141930054289
40
0.00056552141930054289
40
0.074784234322736107
40
0.074784234322736107
40
0.074784234322736107
40
0.17219887615770851
40
0.17219887615770851
40
0.17219887615770851
40
0.17219887615770851
10
266.68447225169177
20
-38.508376999904513
30
0
10
266.83039966267972
20
-38.302298729556881
30
0
10
266.97355080352662
20
-38.098515522417649
30
0
10
267.05612247465672
20
-37.878100802660477
30
0
10
267.16450066466007
20
-37.588798817482761
30
0
10
267.17275608848348
20
-37.259476226821548
30
0
10
267.18014483974662
20
-36.925559050761798
30
0
0
SPLINE
5
152
100
AcDbEntity
8
INSETS D 0.1
100
AcDbSpline
70
0
71
3
72
11
73
7
74
0
42
0.000000001
43
0.0000000001
44
0.0000000001
40
0.00014543621066412445
40
0.00014543621066412445
40
0.00014543621066412445
40
0.00014543621066412445
40
0.081698141761325935
40
0.081698141761325935
40
0.081698141761325935
40
0.15281770104673137
40
0.15281770104673137
40
0.15281770104673137
40
0.15281770104673137
10
267.18014483974667
20
-36.925559050761805
30
0
10
267.16583354836536
20
-36.647463234878487
30
0
10
267.1509317545794
20
-36.373494436503627
30
0
10
267.06118419742103
20
-36.131133922610012
30
0
10
266.98291816481134
20
-35.919778912130425
30
0
10
266.84508203055304
20
-35.725287419567834
30
0
10
266.70443408206796
20
-35.528396964176089
30
0
0
SPLINE
5
153
100
AcDbEntity
8
INSETS D 0.1
100
AcDbSpline
70
0
71
3
72
11
73
7
74
0
42
0.000000001
43
0.0000000001
44
0.0000000001
40
0.00045840649237769722
40
0.00045840649237769722
40
0.00045840649237769722
40
0.00045840649237769722
40
0.067252758627969103
40
0.067252758627969103
40
0.067252758627969103
40
0.13529828144283718
40
0.13529828144283718
40
0.13529828144283718
40
0.13529828144283718
10
266.70443408206791
20
-35.528396964176082
30
0
10
266.53233536600032
20
-35.377771427956745
30
0
10
266.362660541141
20
-35.230801135433836
30
0
10
266.17079133014551
20
-35.148124876047397
30
0
10
265.97532808577176
20
-35.063899951118003
30
0
10
265.74750044262868
20
-35.042382824446996
30
0
10
265.51530311397562
20
-35.021558904128625
30
0
0
SPLINE
5
154
100
AcDbEntity
8
INSETS D 0.1
100
AcDbSpline
70
0
71
3
72
11
73
7
74
0
42
0.000000001
43
0.0000000001
44
0.0000000001
40
0.00034867418435908441
40
0.00034867418435908441
40
0.00034867418435908441
40
0.00034867418435908441
40
0.069339622958474234
40
0.069339622958474234
40
0.069339622958474234
40
0.13639682036426343
40
0.13639682036426343
40
0.13639682036426343
40
0.13639682036426343
10
265.51530311397562
20
-35.021558904128824
30
0
10
265.27966047017691
20
-35.042167359354472
30
0
10
265.04845613852035
20
-35.063501073507403
30
0
10
264.85062257499078
20
-35.149361922066824
30
0
10
264.65833410007014
20
-35.232816171842821
30
0
10
264.48855808254859
20
-35.381138936010885
30
0
10
264.31637966260161
20
-35.53317608014072
30
0
0
SPLINE
5
155
100
AcDbEntity
8
INSETS D 0.1
100
AcDbSpline
70
0
71
3
72
11
73
7
74
0
42
0.000000001
43
0.0000000001
44
0.0000000001
40
0.00049206960800383113
40
0.00049206960800383113
40
0.00049206960800383113
40
0.00049206960800383113
40
0.073111619946106626
40
0.073111619946106626
40
0.073111619946106626
40
0.15932768670753059
40
0.15932768670753059
40
0.15932768670753059
40
0.15932768670753059
10
264.31637966260166
20
-35.533176080140827
30
0
10
264.1768497701662
20
-35.73672559040422
30
0
10
264.03999015314844
20
-35.937914063143772
30
0
10
263.96197090814195
20
-36.155064707383502
30
0
10
263.86934416500128
20
-36.412872341194131
30
0
10
263.85622572491826
20
-36.702749239961705
30
0
10
263.84373560089375
20
-36.99674668369618
30
0
0
SPLINE
5
156
100
AcDbEntity
8
INSETS D 0.1
100
AcDbSpline
70
0
71
3
72
11
73
7
74
0
42
0.000000001
43
0.0000000001
44
0.0000000001
40
0.00015509513398173462
40
0.00015509513398173462
40
0.00015509513398173462
40
0.00015509513398173462
40
0.057403194648575954
40
0.057403194648575954
40
0.057403194648575954
40
0.10891109883833527
40
0.10891109883833527
40
0.10891109883833527
40
0.10891109883833527
10
263.84373560089352
20
-36.99674668369618
30
0
10
263.85039928259476
20
-37.18887941741815
30
0
10
263.85726161732339
20
-37.378745814941958
30
0
10
263.8944666767494
20
-37.560161635306699
30
0
10
263.92794123140783
20
-37.723387118302377
30
0
10
263.98678571783034
20
-37.883711586863761
30
0
10
264.04660346696164
20
-38.04584053278483
30
0
0
SPLINE
5
157
100
AcDbEntity
8
INSETS D 0.1
100
AcDbSpline
70
0
71
3
72
11
73
7
74
0
42
0.000000001
43
0.0000000001
44
0.0000000001
40
0.00026864417604707271
40
0.00026864417604707271
40
0.00026864417604707271
40
0.00026864417604707271
40
0.047739805315327663
40
0.047739805315327663
40
0.047739805315327663
40
0.093620923340712203
40
0.093620923340712203
40
0.093620923340712203
40
0.093620923340712203
10
264.04660346696153
20
-38.045840532784901
30
0
10
264.12177490615056
20
-38.187536121950338
30
0
10
264.1960105720251
20
-38.326308692358722
30
0
10
264.29429276574115
20
-38.440103163622091
30
0
10
264.38928300447674
20
-38.550086097288961
30
0
10
264.51079737859635
20
-38.641440078038784
30
0
10
264.63497237265676
20
-38.734106428443532
30
0
0
SPLINE
5
158
100
AcDbEntity
8
INSETS D 0.1
100
AcDbSpline
70
0
71
3
72
11
73
7
74
0
42
0.000000001
43
0.0000000001
44
0.0000000001
40
0.0003059549116390423
40
0.0003059549116390423
40
0.0003059549116390423
40
0.0003059549116390423
40
0.046165935499511888
40
0.046165935499511888
40
0.046165935499511888
40
0.093305533334664056
40
0.093305533334664056
40
0.093305533334664056
40
0.093305533334664056
10
264.6349723726567
20
-38.734106428443567
30
0
10
264.77161820010826
20
-38.806714899661621
30
0
10
264.90600865167045
20
-38.877545050304711
30
0
10
265.04598572490886
20
-38.917483096329086
30
0
10
265.18986853632777
20
-38.958535521641473
30
0
10
265.34575298353354
20
-38.968687584901701
30
0
10
265.50457362506666
20
-38.978488777182527
30
0
0
SPLINE
5
159
100
AcDbEntity
8
INSETS D 0.1
100
AcDbSpline
70
0
71
3
72
11
73
7
74
0
42
0.000000001
43
0.0000000001
44
0.0000000001
40
0.00029721941187635961
40
0.00029721941187635961
40
0.00029721941187635961
40
0.00029721941187635961
40
0.066460689550609506
40
0.066460689550609506
40
0.066460689550609506
40
0.13219907412107484
40
0.13219907412107484
40
0.13219907412107484
40
0.13219907412107484
10
265.50457362506666
20
-38.978488777182513
30
0
10
265.72945326092474
20
-38.958567651038635
30
0
10
265.95033583519472
20
-38.93810910887202
30
0
10
266.14364817974331
20
-38.860840769625057
30
0
10
266.33571853550768
20
-38.784068862258529
30
0
10
266.50889100523079
20
-38.647894640871023
30
0
10
266.68447225169166
20
-38.508376999904343
30
0
0
LWPOLYLINE
5
15A
100
AcDbEntity
8
INSETS D 0.1
100
AcDbPolyline
90
10
70
1
43
0.0
10
371.14504032593965
20
-107.54049999999999
10
370.59166093903775
20
-107.54049999999999
10
370.59166093903775
20
-111.55902540128602
10
367.90333395479655
20
-107.54049999999998
10
367.28674908715482
20
-107.54049999999999
10
367.28674908715482
20
-112.45950000000001
10
367.84012847405671
20
-112.45950000000001
10
367.84012847405671
20
-108.43746800902008
10
370.52846590275942
20
-112.45950000000001
10
371.14504032593965
20
-112.45950000000001
0
SPLINE
5
15B
100
AcDbEntity
8
INSETS D 0.1
100
AcDbSpline
70
0
71
3
72
14
73
10
74
0
42
0.000000001
43
0.0000000001
44
0.0000000001
40
-0.012763753415481117
40
-0.012763753415481117
40
-0.012763753415481117
40
-0.012763753415481117
40
0
40
0
40
0
40
0.035404301036540985
40
0.035404301036540985
40
0.035404301036540985
40
0.084451219424743401
40
0.084451219424743401
40
0.084451219424743401
40
0.084451219424743401
10
357.23212978033524
20
-111.91426472490826
30
0
10
357.24514184057671
20
-111.87375665418173
30
0
10
357.25815390081806
20
-111.83324858345516
30
0
10
357.27116596105941
20
-111.79274051272859
30
0
10
357.30725901949575
20
-111.68037858565836
30
0
10
357.3433207167522
20
-111.56811559427693
30
0
10
357.38021017179585
20
-111.45623577849054
30
0
10
357.43131453024779
20
-111.30124443468466
30
0
10
357.48411490353107
20
-111.14666269587899
30
0
10
357.53696247765509
20
-110.9919451399481
30
0
0
LINE
5
15C
100
AcDbEntity
8
INSETS D 0.1
100
AcDbLine
10
358.72466556991668
20
-107.54049999999999
30
0
11
357.53696247765509
21
-110.9919451399481
31
0
0
LINE
5
15D
100
AcDbEntity
8
INSETS D 0.1
100
AcDbLine
10
359.54544895154237
20
-107.54049999999999
30
0
11
358.72466556991668
21
-107.54049999999999
31
0
0
LINE
5
15E
100
AcDbEntity
8
INSETS D 0.1
100
AcDbLine
10
359.54544895154237
20
-112.45950000000001
30
0
11
359.54544895154237
21
-107.54049999999999
31
0
0
LINE
5
15F
100
AcDbEntity
8
INSETS D 0.1
100
AcDbLine
10
358.98865898686643
20
-112.45950000000001
30
0
11
359.54544895154237
21
-112.45950000000001
31
0
0
LINE
5
160
100
AcDbEntity
8
INSETS D 0.1
100
AcDbLine
10
358.98865898686643
20
-108.07500986314241
30
0
11
358.98865898686643
21
-112.45950000000001
31
0
0
LINE
5
161
100
AcDbEntity
8
INSETS D 0.1
100
AcDbLine
10
357.46641565985107
20
-112.45950000000001
30
0
11
358.98865898686643
21
-108.07500986314241
31
0
0
LINE
5
162
100
AcDbEntity
8
INSETS D 0.1
100
AcDbLine
10
356.92737753811736
20
-112.45950000000001
30
0
11
357.46641565985107
21
-112.45950000000001
31
0
0
LINE
5
163
100
AcDbEntity
8
INSETS D 0.1
100
AcDbLine
10
355.41175179940461
20
-107.99841257819935
30
0
11
356.92737753811736
21
-112.45950000000001
31
0
0
LINE
5
164
100
AcDbEntity
8
INSETS D 0.1
100
AcDbLine
10
355.41175179940461
20
-112.45950000000001
30
0
11
355.41175179940461
21
-107.99841257819935
31
0
0
LINE
5
165
100
AcDbEntity
8
INSETS D 0.1
100
AcDbLine
10
354.85496198374028
20
-112.45950000000001
30
0
11
355.41175179940461
21
-112.45950000000001
31
0
0
LINE
5
166
100
AcDbEntity
8
INSETS D 0.1
100
AcDbLine
10
354.85496198374028
20
-107.54049999999999
30
0
11
354.85496198374028
21
-112.45950000000001
31
0
0
LINE
5
167
100
AcDbEntity
8
INSETS D 0.1
100
AcDbLine
10
355.78120493699078
20
-107.54049999999999
30
0
11
354.85496198374028
21
-107.54049999999999
31
0
0
LINE
5
168
100
AcDbEntity
8
INSETS D 0.1
100
AcDbLine
10
356.95541114672602
20
-111.05296626276592
30
0
11
355.78120493699078
21
-107.54049999999999
31
0
0
SPLINE
5
169
100
AcDbEntity
8
INSETS D 0.1
100
AcDbSpline
70
0
71
3
72
14
73
10
74
0
42
0.000000001
43
0.0000000001
44
0.0000000001
40
0
40
0
40
0
40
0
40
0.045488031712737832
40
0.045488031712737832
40
0.045488031712737832
40
0.077767374891384466
40
0.077767374891384466
40
0.077767374891384466
40
0.090531192544419076
40
0.090531192544419076
40
0.090531192544419076
40
0.090531192544419076
10
356.95541114672602
20
-111.05296626276592
30
0
10
357.00303669355105
20
-111.19692268172514
30
0
10
357.0506224858301
20
-111.34076077314018
30
0
10
357.09683713026345
20
-111.48490867991021
30
0
10
357.12963209437538
20
-111.58719931715956
30
0
10
357.16178283577455
20
-111.68979018915222
30
0
10
357.19395978841391
20
-111.79246567208706
30
0
10
357.20668311905445
20
-111.83306535636083
30
0
10
357.21940644969493
20
-111.87366504063462
30
0
10
357.23212978033536
20
-111.91426472490838
30
0
0
LWPOLYLINE
5
16A
100
AcDbEntity
8
INSETS D 0.1
100
AcDbPolyline
90
8
70
1
43
0.0
10
364.0578165171201
20
-112.45950000000001
10
364.7234301546207
20
-112.45950000000001
10
362.71019677716401
20
-107.54049999999998
10
362.05238830876078
20
-107.54049999999999
10
360.16330435418809
20
-112.45950000000001
10
360.7785644255805
20
-112.45950000000001
10
361.32767757999181
20
-110.94517545413972
10
363.47459698892186
20
-110.94517545413972
0
LWPOLYLINE
5
16B
100
AcDbEntity
8
INSETS D 0.1
100
AcDbPolyline
90
4
70
1
43
0.0
10
366.04613118630647
20
-107.54049999999999
10
365.46546717721219
20
-107.54049999999999
10
365.46546717721219
20
-112.45950000000001
10
366.04613118630647
20
-112.45950000000001
0
SPLINE
5
16C
100
AcDbEntity
8
INSETS D 0.1
100
AcDbSpline
70
0
71
3
72
14
73
10
74
0
42
0.000000001
43
0.0000000001
44
0.0000000001
40
0
40
0
40
0
40
0
40
0.061119277296083969
40
0.061119277296083969
40
0.061119277296083969
40
0.10960468820529752
40
0.10960468820529752
40
0.10960468820529752
40
0.12498396079733147
40
0.12498396079733147
40
0.12498396079733147
40
0.12498396079733147
10
362.75825406466794
20
-109.04786316279539
30
0
10
362.68674989876286
20
-108.85703030137181
30
0
10
362.61541148720255
20
-108.66661821138605
30
0
10
362.55065867734567
20
-108.47444844345951
30
0
10
362.49929081548066
20
-108.32200177565768
30
0
10
362.45186160006813
20
-108.16783837153116
30
0
10
362.40433149620731
20
-108.01333078236274
30
0
10
362.38925524110505
20
-107.96432193028126
30
0
10
362.37417898600285
20
-107.91531307819979
30
0
10
362.35910273090064
20
-107.86630422611833
30
0
0
LINE
5
16D
100
AcDbEntity
8
INSETS D 0.1
100
AcDbLine
10
362.75825406466794
20
-109.04786316279539
30
0
11
363.30069952171777
21
-110.48729403305053
31
0
0
LINE
5
16E
100
AcDbEntity
8
INSETS D 0.1
100
AcDbLine
10
363.30069952171777
20
-110.48729403305053
30
0
11
361.48865842112616
21
-110.48729403305053
31
0
0
LINE
5
16F
100
AcDbEntity
8
INSETS D 0.1
100
AcDbLine
10
361.48865842112616
20
-110.48729403305053
30
0
11
362.05807510695769
21
-108.96649133588434
31
0
0
SPLINE
5
170
100
AcDbEntity
8
INSETS D 0.1
100
AcDbSpline
70
0
71
3
72
14
73
10
74
0
42
0.000000001
43
0.0000000001
44
0.0000000001
40
-0.015368168847718779
40
-0.015368168847718779
40
-0.015368168847718779
40
-0.015368168847718779
40
0
40
0
40
0
40
0.049282646027225867
40
0.049282646027225867
40
0.049282646027225867
40
0.09925093688981014
40
0.09925093688981014
40
0.09925093688981014
40
0.09925093688981014
10
362.35910273090047
20
-107.8663042261183
30
0
10
362.34809072255791
20
-107.91638313108352
30
0
10
362.33707871421529
20
-107.96646203604872
30
0
10
362.32606670587273
20
-108.01654094101391
30
0
10
362.29075339596733
20
-108.17713398051561
30
0
10
362.25558583008768
20
-108.33695827785961
30
0
10
362.21152797628361
20
-108.49345887603155
30
0
10
362.16685716756848
20
-108.65213678884709
30
0
10
362.11261150911662
20
-108.80894490453909
30
0
10
362.05807510695786
20
-108.9664913358844
30
0
0
LWPOLYLINE
5
171
100
AcDbEntity
8
INSETS D 1.0
100
AcDbPolyline
90
4
70
1
43
0.0
10
253.7405
20
-98.209499701976796
10
272.2595
20
-98.209499701976796
10
272.2595
20
-85.190499701976776
10
253.7405
20
-85.190499701976776
0
LWPOLYLINE
5
172
100
AcDbEntity
8
INSETS D 1.0
100
AcDbPolyline
90
4
70
1
43
0.0
10
372.2595
20
-48.790500298023225
10
353.7405
20
-48.790500298023225
10
353.7405
20
-61.809500298023224
10
372.2595
20
-61.809500298023224
0
CIRCLE
5
173
100
AcDbEntity
8
HOLES DIAM 38.0 D 5.0
100
AcDbCircle
10
475.48420457415199
20
-54.625828377233091
30
0
40
18.959499999999991
210
0
220
-0
230
1
0
CIRCLE
5
174
100
AcDbEntity
8
HOLES DIAM 38.0 D 5.0
100
AcDbCircle
10
475.48420457415199
20
-154.626
30
0
40
18.959499999999991
210
0
220
0
230
1
0
CIRCLE
5
175
100
AcDbEntity
8
HOLES DIAM 38.0 D 5.0
100
AcDbCircle
10
475.48420457415199
20
-254.56299999999999
30
0
40
18.959499999999991
210
0
220
0
230
1
0
CIRCLE
5
176
100
AcDbEntity
8
HOLES DIAM 5.0 D 5.0
100
AcDbCircle
10
505.14557465376902
20
-37.500828377233063
30
0
40
2.4595000000000056
210
0
220
0
230
1
0
LWPOLYLINE
5
177
100
AcDbEntity
8
CUTOUTS D 5.0
100
AcDbPolyline
90
4
70
1
43
0.0
10
282.95950029797677
20
-62.459499999999998
10
243.04049970197678
20
-62.459499999999998
10
243.04049970197678
20
-57.540500000000002
10
282.95950029797677
20
-57.540500000000002
0
LWPOLYLINE
5
178
100
AcDbEntity
8
CUTOUTS D 5.0
100
AcDbPolyline
90
4
70
1
43
0.0
10
382.95950029802322
20
-89.45950000000002
10
343.04049970202323
20
-89.45950000000002
10
343.04049970202323
20
-84.540500000000009
10
382.95950029802322
20
-84.540500000000009
0
LWPOLYLINE
5
179
100
AcDbEntity
8
CUTOUTS D 5.0
100
AcDbPolyline
90
4
70
1
43
0.0
10
108.54050000000001
20
-98.959500595953585
10
113.45950000000002
20
-98.959500595953585
10
113.45950000000002
20
-59.040499999953944
10
108.54050000000001
20
-59.040499999999639
0
LWPOLYLINE
5
17A
100
AcDbEntity
8
CUTOUTS D 5.0
100
AcDbPolyline
90
4
70
1
43
0.0
10
34.945452180740389
20
-67.459500298065819
10
39.86445218069592
20
-67.459500298096117
10
39.864452180892407
20
-65.540500297765703
10
34.945452180737476
20
-65.540500297886709
0
LWPOLYLINE
5
17B
100
AcDbEntity
8
CUTOUTS D 5.0
100
AcDbPolyline
90
4
70
1
43
0.0
10
34.945452180737504
20
-90.540500297886695
10
34.945452180740368
20
-92.459500298065819
10
39.864452180695949
20
-92.459500298096131
10
39.864452180892414
20
-90.540500297765703
0
LWPOLYLINE
5
17C
100
AcDbEntity
8
CUTOUTS D 5.0
100
AcDbPolyline
90
4
70
1
43
0.0
10
19.945452180924775
20
-65.54050029816004
10
19.945452181209955
20
-67.459500298157309
10
24.864452180906788
20
-67.459500298187592
10
24.864452180918477
20
-65.540500298070185
0
LWPOLYLINE
5
17D
100
AcDbEntity
8
CUTOUTS D 5.0
100
AcDbPolyline
90
4
70
1
43
0.0
10
24.864452180906724
20
-92.459500298187592
10
24.864452180918448
20
-90.540500298070171
10
19.94545218092475
20
-90.540500298160026
10
19.945452181209923
20
-92.459500298157323
0
LWPOLYLINE
5
17E
100
AcDbEntity
8
CUTOUTS D 5.0
100
AcDbPolyline
90
4
70
1
43
0.0
10
67.959500297976788
20
-432.68050000000005
10
28.040499701976771
20
-432.68050000000005
10
28.040499701976771
20
-437.59950000000003
10
67.959500297976788
20
-437.59950000000003
0
LWPOLYLINE
5
17F
100
AcDbEntity
8
CUTOUTS D 5.0
100
AcDbPolyline
90
4
70
1
43
0.0
10
162.95950029802324
20
-410.59950000000003
10
162.95950029802324
20
-405.68049999999999
10
123.04049970202321
20
-405.68049999999999
10
123.04049970202321
20
-410.59950000000003
0
CIRCLE
5
180
100
AcDbEntity
8
HOLES DIAM 6.0 D 5.0
100
AcDbCircle
10
263
20
-52.5
30
0
40
2.9595000000000127
210
0
220
-0
230
1
0
CIRCLE
5
181
100
AcDbEntity
8
HOLES DIAM 6.0 D 5.0
100
AcDbCircle
10
263
20
-113.50000000000001
30
0
40
2.9595000000000127
210
0
220
-0
230
1
0
CIRCLE
5
182
100
AcDbEntity
8
HOLES DIAM 6.0 D 5.0
100
AcDbCircle
10
363
20
-94.500000000000014
30
0
40
2.9594999999999771
210
0
220
-0
230
1
0
CIRCLE
5
183
100
AcDbEntity
8
HOLES DIAM 6.0 D 5.0
100
AcDbCircle
10
363
20
-33.500000000000007
30
0
40
2.9594999999999771
210
0
220
-0
230
1
0
CIRCLE
5
184
100
AcDbEntity
8
HOLES DIAM 6.0 D 5.0
100
AcDbCircle
10
551.40605240678622
20
-295.98747137628663
30
0
40
2.9594999999999771
210
0
220
0
230
1
0
CIRCLE
5
185
100
AcDbEntity
8
HOLES DIAM 6.0 D 5.0
100
AcDbCircle
10
534.48985855534124
20
-237.3799429726734
30
0
40
2.9594999999999771
210
0
220
0
230
1
0
CIRCLE
5
186
100
AcDbEntity
8
HOLES DIAM 6.0 D 5.0
100
AcDbCircle
10
47.999999999999986
20
-442.64000000000004
30
0
40
2.9594999999999949
210
0
220
0
230
1
0
CIRCLE
5
187
100
AcDbEntity
8
HOLES DIAM 6.0 D 5.0
100
AcDbCircle
10
48
20
-381.63999999999999
30
0
40
2.9594999999999949
210
0
220
0
230
1
0
CIRCLE
5
188
100
AcDbEntity
8
HOLES DIAM 6.0 D 5.0
100
AcDbCircle
10
143
20
-400.63999999999999
30
0
40
2.9595000000000127
210
0
220
0
230
1
0
CIRCLE
5
189
100
AcDbEntity
8
HOLES DIAM 6.0 D 5.0
100
AcDbCircle
10
143
20
-461.63999999999999
30
0
40
2.9595000000000127
210
0
220
0
230
1
0
CIRCLE
5
18A
100
AcDbEntity
8
HOLES DIAM 2.3 D 5.0
100
AcDbCircle
10
238.70000000000002
20
-86.699999701976779
30
0
40
1.1094999999999899
210
0
220
-0
230
1
0
CIRCLE
5
18B
100
AcDbEntity
8
HOLES DIAM 2.3 D 5.0
100
AcDbCircle
10
238.70000000000002
20
-96.699999701976793
30
0
40
1.1094999999999899
210
0
220
-0
230
1
0
CIRCLE
5
18C
100
AcDbEntity
8
HOLES DIAM 2.3 D 5.0
100
AcDbCircle
10
387.29999999999995
20
-60.300000298023228
30
0
40
1.1095000000000255
210
0
220
-0
230
1
0
CIRCLE
5
18D
100
AcDbEntity
8
HOLES DIAM 2.3 D 5.0
100
AcDbCircle
10
387.29999999999995
20
-50.300000298023228
30
0
40
1.1095000000000255
210
0
220
-0
230
1
0
CIRCLE
5
18E
100
AcDbEntity
8
HOLES DIAM 2.3 D 5.0
100
AcDbCircle
10
23.699999999999996
20
-408.44000029802322
30
0
40
1.1095000000000033
210
0
220
0
230
1
0
CIRCLE
5
18F
100
AcDbEntity
8
HOLES DIAM 2.3 D 5.0
100
AcDbCircle
10
23.699999999999996
20
-398.44000029802322
30
0
40
1.1094999999999988
210
0
220
0
230
1
0
CIRCLE
5
190
100
AcDbEntity
8
HOLES DIAM 2.3 D 5.0
100
AcDbCircle
10
167.30000000000001
20
-434.83999970197681
30
0
40
1.1094999999999899
210
0
220
0
230
1
0
CIRCLE
5
191
100
AcDbEntity
8
HOLES DIAM 2.3 D 5.0
100
AcDbCircle
10
167.30000000000001
20
-444.83999970197681
30
0
40
1.1094999999999899
210
0
220
0
230
1
0
CIRCLE
5
192
100
AcDbEntity
8
HOLES DIAM 2.5 D 5.0
100
AcDbCircle
10
54.904952181367079
20
-85.985000297962898
30
0
40
1.2095000000000233
210
0
220
0
230
1
0
CIRCLE
5
193
100
AcDbEntity
8
HOLES DIAM 2.5 D 5.0
100
AcDbCircle
10
54.904952181021045
20
-72.015000297960469
30
0
40
1.2095000000000145
210
0
220
0
230
1
0
CIRCLE
5
194
100
AcDbEntity
8
HOLES DIAM 2.5 D 5.0
100
AcDbCircle
10
86.65495218078398
20
-72.015000297928239
30
0
40
1.2095000000000233
210
0
220
0
230
1
0
CIRCLE
5
195
100
AcDbEntity
8
HOLES DIAM 2.5 D 5.0
100
AcDbCircle
10
120
20
-53.777840108315814
30
0
40
1.2095000000000056
210
0
220
0
230
1
0
CIRCLE
5
196
100
AcDbEntity
8
HOLES DIAM 2.5 D 5.0
100
AcDbCircle
10
120
20
-68.777840108315814
30
0
40
1.2095000000000056
210
0
220
0
230
1
0
CIRCLE
5
197
100
AcDbEntity
8
HOLES DIAM 2.5 D 5.0
100
AcDbCircle
10
86.654952180531311
20
-85.985000297962102
30
0
40
1.2094999999999878
210
0
220
0
230
1
0
ENDSEC
0
SECTION
2
OBJECTS
0
DICTIONARY
5
C
100
AcDbDictionary
3
ACAD_GROUP
350
D
3
ACAD_MLINESTYLE
350
17
0
DICTIONARY
5
D
100
AcDbDictionary
0
DICTIONARY
5
1A
330
C
100
AcDbDictionary
0
DICTIONARY
5
17
100
AcDbDictionary
0
ENDSEC
0
EOF
