0
SECTION
2
HEADER
9
$INSUNITS
70
4
9
$ACADVER
1
AC1014
9
$HANDSEED
5
FFFF
0
ENDSEC
0
SECTION
2
TABLES
0
TABLE
2
VPORT
5
8
100
AcDbSymbolTable
0
ENDTAB
0
TABLE
2
LTYPE
5
5
100
AcDbSymbolTable
70
2
0
LTYPE
5
14
100
AcDbSymbolTableRecord
100
AcDbLinetypeTableRecord
2
BYBLOCK
70
0
0
LTYPE
5
15
100
AcDbSymbolTableRecord
100
AcDbLinetypeTableRecord
2
BYLAYER
70
0
0
ENDTAB
0
TABLE
2
LAYER
5
2
100
AcDbSymbolTable
70
5
0
LAYER
5
50
100
AcDbSymbolTableRecord
100
AcDbLayerTableRecord
2
0
70
0
6
CONTINUOUS
0
LAYER
5
51
100
AcDbSymbolTableRecord
100
AcDbLayerTableRecord
2
BOARDS
70
0
62
0
6
CONTINUOUS
0
LAYER
5
52
100
AcDbSymbolTableRecord
100
AcDbLayerTableRecord
2
PERIMETER D 2.85
70
0
62
5
6
CONTINUOUS
0
LAYER
5
53
100
AcDbSymbolTableRecord
100
AcDbLayerTableRecord
2
HOLES DIAM 31.0 D 2.85
70
0
62
1
6
CONTINUOUS
0
LAYER
5
54
100
AcDbSymbolTableRecord
100
AcDbLayerTableRecord
2
HOLES DIAM 4.0 D 2.85
70
0
62
1
6
CONTINUOUS
0
ENDTAB
0
TABLE
2
STYLE
5
3
100
AcDbSymbolTable
70
1
0
STYLE
5
11
100
AcDbSymbolTableRecord
100
AcDbTextStyleTableRecord
2
STANDARD
70
0
0
ENDTAB
0
TABLE
2
VIEW
5
6
100
AcDbSymbolTable
0
ENDTAB
0
TABLE
2
UCS
5
7
100
AcDbSymbolTable
0
ENDTAB
0
TABLE
2
APPID
5
9
100
AcDbSymbolTable
70
1
0
APPID
5
12
100
AcDbSymbolTableRecord
100
AcDbRegAppTableRecord
2
ACAD
70
0
0
ENDTAB
0
TABLE
2
DIMSTYLE
5
A
100
AcDbSymbolTable
0
ENDTAB
0
TABLE
2
BLOCK_RECORD
5
1
100
AcDbSymbolTable
70
2
0
BLOCK_RECORD
5
1F
100
AcDbSymbolTableRecord
100
AcDbBlockTableRecord
2
*MODEL_SPACE
0
BLOCK_RECORD
5
1B
100
AcDbSymbolTableRecord
100
AcDbBlockTableRecord
2
*PAPER_SPACE
0
ENDTAB
0
ENDSEC
0
SECTION
2
BLOCKS
0
BLOCK
5
20
100
AcDbEntity
100
AcDbBlockBegin
2
*MODEL_SPACE
0
ENDBLK
5
21
100
AcDbEntity
100
AcDbBlockEnd
0
BLOCK
5
1C
100
AcDbEntity
100
AcDbBlockBegin
2
*PAPER_SPACE
0
ENDBLK
5
1D
100
AcDbEntity
100
AcDbBlockEnd
0
ENDSEC
0
SECTION
2
ENTITIES
0
LWPOLYLINE
5
100
100
AcDbEntity
8
BOARDS
100
AcDbPolyline
90
4
70
1
43
0.0
10
0
20
0
10
300
20
0
10
300
20
-300
10
0
20
-300
0
LWPOLYLINE
5
101
100
AcDbEntity
8
PERIMETER D 2.85
100
AcDbPolyline
90
12
70
1
43
0.0
10
32.039586100175747
20
-58.811352991967496
10
29.439586100175749
20
-58.811352991967496
10
29.439586100175749
20
-54.445832164461372
42
0.5425206531923209
10
8.88017265354787
20
-90.055780827835633
10
12.660824590918239
20
-87.873020414082561
10
13.96082459091823
20
-90.124686463922089
10
10.180172653547842
20
-92.307446877675147
42
0.54252065319232101
10
51.298999546803628
20
-92.30744687767519
10
47.518347609433249
20
-90.124686463922089
10
48.818347609433246
20
-87.873020414082561
10
52.59899954680364
20
-90.055780827835633
42
0.5425206531923209
10
32.039586100175747
20
-54.445832164461351
0
LWPOLYLINE
5
102
100
AcDbEntity
8
PERIMETER D 2.85
100
AcDbPolyline
90
12
70
1
43
0.0
10
84.014586100175762
20
-58.811352991967496
10
81.41458610017574
20
-58.811352991967496
10
81.41458610017574
20
-54.445832164461372
42
0.54252065319232068
10
60.855172653547868
20
-90.055780827835633
10
64.635824590918247
20
-87.873020414082561
10
65.93582459091823
20
-90.124686463922089
10
62.155172653547851
20
-92.307446877675176
42
0.5425206531923209
10
103.27399954680365
20
-92.307446877675176
10
99.493347609433272
20
-90.124686463922089
10
100.79334760943325
20
-87.873020414082561
10
104.57399954680363
20
-90.055780827835633
42
0.54252065319232101
10
84.014586100175734
20
-54.445832164461351
0
LWPOLYLINE
5
103
100
AcDbEntity
8
PERIMETER D 2.85
100
AcDbPolyline
90
12
70
1
43
0.0
10
116.61082459091827
20
-87.873020414082546
10
117.91082459091827
20
-90.124686463922103
10
114.13017265354789
20
-92.307446877675176
42
0.54252065319232046
10
155.24899954680365
20
-92.30744687767519
10
151.46834760943327
20
-90.124686463922103
10
152.76834760943328
20
-87.873020414082546
10
156.54899954680366
20
-90.055780827835605
42
0.54252065319232057
10
135.98958610017579
20
-54.445832164461365
10
135.98958610017579
20
-58.811352991967503
10
133.38958610017576
20
-58.811352991967503
10
133.38958610017576
20
-54.445832164461372
42
0.54252065319232046
10
112.83017265354786
20
-90.055780827835605
0
LWPOLYLINE
5
104
100
AcDbEntity
8
PERIMETER D 2.85
100
AcDbPolyline
90
16
70
1
43
0.0
10
28.374999999999993
20
-162.99918423675902
10
28.374999999999993
20
-157.399184236759
10
5.6026334234595732
20
-157.399184236759
10
153.8387509968135
20
-106.38600000000004
10
204.04497785961652
20
-106.38600000000002
10
183.43431356460536
20
-157.399184236759
10
171.47500000000002
20
-157.399184236759
10
171.47500000000002
20
-162.99918423675899
10
168.625
20
-162.99918423675899
10
168.625
20
-166.89918423675897
10
101.22500000000002
20
-166.89918423675897
10
101.22500000000002
20
-164.04918423675898
10
98.624999999999986
20
-164.04918423675898
10
98.624999999999986
20
-166.89918423675897
10
31.225000000000016
20
-166.89918423675894
10
31.224999999999994
20
-162.99918423675899
0
LWPOLYLINE
5
105
100
AcDbEntity
8
PERIMETER D 2.85
100
AcDbPolyline
90
16
70
1
43
0.0
10
26.77534417394714
20
-179.32399999999998
10
38.734657738552443
20
-179.32399999999998
10
38.734657738552443
20
-173.72399999999999
10
41.584657738552444
20
-173.72399999999999
10
41.584657738552444
20
-169.82399999999998
10
108.98465773855249
20
-169.82399999999998
10
108.98465773855249
20
-172.67399999999998
10
111.58465773855247
20
-172.67399999999998
10
111.58465773855247
20
-169.82399999999998
10
178.9846577385525
20
-169.82400000000001
10
178.98465773855253
20
-173.72399999999999
10
181.83465773855255
20
-173.72399999999996
10
181.83465773855255
20
-179.32399999999998
10
204.60702431509307
20
-179.32399999999998
10
56.370906741738892
20
-230.33718423675901
10
6.1646798789358925
20
-230.33718423675901
0
LWPOLYLINE
5
106
100
AcDbEntity
8
PERIMETER D 2.85
100
AcDbPolyline
90
16
70
1
43
0.0
10
26.77534417394714
20
-242.76200000000003
10
38.734657738552443
20
-242.76200000000003
10
38.734657738552443
20
-237.16200000000003
10
41.584657738552444
20
-237.16200000000003
10
41.584657738552444
20
-233.26200000000003
10
108.98465773855241
20
-233.26200000000003
10
108.98465773855241
20
-236.11200000000002
10
111.58465773855244
20
-236.11200000000002
10
111.58465773855242
20
-233.26200000000003
10
178.98465773855239
20
-233.26200000000006
10
178.98465773855239
20
-237.16200000000003
10
181.83465773855244
20
-237.16200000000001
10
181.83465773855244
20
-242.76200000000003
10
204.60702431509279
20
-242.76200000000003
10
56.37090674173885
20
-293.775184236759
10
6.1646798789359281
20
-293.775184236759
0
CIRCLE
5
107
100
AcDbEntity
8
HOLES DIAM 31.0 D 2.85
100
AcDbCircle
10
30.73958610017575
20
-78.93635328999072
30
0
40
15.375
210
0
220
-0
230
1
0
CIRCLE
5
108
100
AcDbEntity
8
HOLES DIAM 31.0 D 2.85
100
AcDbCircle
10
82.714586100175751
20
-78.93635328999072
30
0
40
15.375000000000014
210
0
220
-0
230
1
0
CIRCLE
5
109
100
AcDbEntity
8
HOLES DIAM 31.0 D 2.85
100
AcDbCircle
10
134.68958610017577
20
-78.93635328999072
30
0
40
15.375000000000014
210
0
220
-0
230
1
0
CIRCLE
5
10A
100
AcDbEntity
8
HOLES DIAM 4.0 D 2.85
100
AcDbCircle
10
48.016792905675288
20
-68.961353289990726
30
0
40
1.875
210
0
220
-0
230
1
0
CIRCLE
5
10B
100
AcDbEntity
8
HOLES DIAM 4.0 D 2.85
100
AcDbCircle
10
13.462379294676198
20
-68.961353289990726
30
0
40
1.875
210
0
220
-0
230
1
0
CIRCLE
5
10C
100
AcDbEntity
8
HOLES DIAM 4.0 D 2.85
100
AcDbCircle
10
30.739586100175742
20
-98.886353289990723
30
0
40
1.8749999999999956
210
0
220
-0
230
1
0
CIRCLE
5
10D
100
AcDbEntity
8
HOLES DIAM 4.0 D 2.85
100
AcDbCircle
10
65.437379294676205
20
-68.961353289990726
30
0
40
1.875
210
0
220
-0
230
1
0
CIRCLE
5
10E
100
AcDbEntity
8
HOLES DIAM 4.0 D 2.85
100
AcDbCircle
10
82.714586100175751
20
-98.886353289990723
30
0
40
1.875
210
0
220
-0
230
1
0
CIRCLE
5
10F
100
AcDbEntity
8
HOLES DIAM 4.0 D 2.85
100
AcDbCircle
10
99.991792905675283
20
-68.961353289990726
30
0
40
1.875
210
0
220
-0
230
1
0
CIRCLE
5
110
100
AcDbEntity
8
HOLES DIAM 4.0 D 2.85
100
AcDbCircle
10
117.41237929467621
20
-68.961353289990726
30
0
40
1.875
210
0
220
-0
230
1
0
CIRCLE
5
111
100
AcDbEntity
8
HOLES DIAM 4.0 D 2.85
100
AcDbCircle
10
134.68958610017577
20
-98.886353289990723
30
0
40
1.875
210
0
220
-0
230
1
0
CIRCLE
5
112
100
AcDbEntity
8
HOLES DIAM 4.0 D 2.85
100
AcDbCircle
10
151.96679290567531
20
-68.961353289990726
30
0
40
1.875
210
0
220
-0
230
1
0
ENDSEC
0
SECTION
2
OBJECTS
0
DICTIONARY
5
C
100
AcDbDictionary
3
ACAD_GROUP
350
D
3
ACAD_MLINESTYLE
350
17
0
DICTIONARY
5
D
100
AcDbDictionary
0
DICTIONARY
5
1A
330
C
100
AcDbDictionary
0
DICTIONARY
5
17
100
AcDbDictionary
0
ENDSEC
0
EOF
